STARTFONT 2.1
FONT -WRI-Mathematica2-Medium-R-Normal--34-340-75-75-p-190-Adobe-FontSpecific
SIZE 34 75 75
FONTBOUNDINGBOX 86 222 -1 -139
STARTPROPERTIES 16
FOUNDRY "WRI"
FAMILY_NAME "Mathematica2"
WEIGHT_NAME "Medium"
SLANT "R"
SETWIDTH_NAME "Normal"
PIXEL_SIZE 34
POINT_SIZE 340
RESOLUTION_X 75
RESOLUTION_Y 75
SPACING "p"
AVERAGE_WIDTH 190
CHARSET_REGISTRY "Adobe"
CHARSET_ENCODING "FontSpecific"
FONT_DESCENT 139
FONT_ASCENT 83
DEFAULT_CHAR 32
ENDPROPERTIES
CHARS 223
STARTCHAR Space
ENCODING 32
SWIDTH 189 0
DWIDTH 6 0
BBX 0 0 0 0
BITMAP
ENDCHAR
STARTCHAR Radical1Extens
ENCODING 33
SWIDTH 230 0
DWIDTH 8 0
BBX 8 2 0 10
BITMAP
ff
ff
ENDCHAR
STARTCHAR Radical2
ENCODING 34
SWIDTH 924 0
DWIDTH 31 0
BBX 30 56 2 -30
BITMAP
0000007c
0000007c
00000060
00000060
000000c0
000000c0
000000c0
000000c0
000000c0
00000180
00000180
00000180
00000180
00000180
00000300
00000300
00000300
00000300
00000700
00000600
00000600
00000600
00000600
00000e00
00000c00
00000c00
00000c00
00000c00
00001800
01001800
07001800
1f801800
77801800
c7c03000
03c03000
03e03000
01e03000
01f07000
00f06000
00f06000
00786000
00786000
007ce000
003cc000
003ec000
001ec000
001fc000
000fc000
000f8000
00078000
00078000
00038000
00038000
00010000
00010000
00008000
ENDCHAR
STARTCHAR Radical2Extens
ENCODING 35
SWIDTH 230 0
DWIDTH 8 0
BBX 8 2 0 24
BITMAP
ff
ff
ENDCHAR
STARTCHAR Radical3
ENCODING 36
SWIDTH 1051 0
DWIDTH 36 0
BBX 34 98 2 -39
BITMAP
00000007c0
00000007c0
0000000600
0000000600
0000000400
0000000c00
0000000c00
0000000c00
0000000c00
0000000c00
0000000c00
0000000800
0000001800
0000001800
0000001800
0000001800
0000001800
0000001800
0000001000
0000003000
0000003000
0000003000
0000003000
0000003000
0000003000
0000006000
0000006000
0000006000
0000006000
0000006000
0000006000
0000006000
000000c000
000000c000
000000c000
000000c000
000000c000
000000c000
000000c000
0000018000
0000018000
0000018000
0000018000
0000018000
0000018000
0000018000
0000030000
0000030000
0000030000
0000030000
0000030000
0000030000
0000030000
0000060000
0000060000
0000060000
0000060000
0000060000
0000060000
0000060000
00000c0000
00000c0000
00800c0000
03000c0000
0f800c0000
3f800c0000
c7c00c0000
03c0180000
03c0180000
03e0180000
01e0180000
01e0180000
00f0180000
00f0100000
00f0300000
0078300000
0078300000
007c300000
003c300000
003c300000
001e600000
001e600000
001e600000
000f600000
000f600000
000f600000
0007e00000
0007c00000
0007c00000
0003c00000
0003c00000
0001c00000
0001c00000
0001c00000
0000800000
0000800000
0000800000
0000400000
ENDCHAR
STARTCHAR Radical3Extens
ENCODING 37
SWIDTH 230 0
DWIDTH 8 0
BBX 8 2 0 57
BITMAP
ff
ff
ENDCHAR
STARTCHAR Radical4
ENCODING 38
SWIDTH 1070 0
DWIDTH 36 0
BBX 35 133 2 -51
BITMAP
0000000fe0
0000000fe0
0000000c00
0000000c00
0000001800
0000001800
0000001800
0000001800
0000001800
0000001800
0000001800
0000001800
0000001800
0000001800
0000001800
0000001800
0000003000
0000003000
0000003000
0000003000
0000003000
0000003000
0000003000
0000003000
0000003000
0000003000
0000003000
0000003000
0000007000
0000006000
0000006000
0000006000
0000006000
0000006000
0000006000
0000006000
0000006000
0000006000
0000006000
0000006000
000000e000
000000c000
000000c000
000000c000
000000c000
000000c000
000000c000
000000c000
000000c000
000000c000
000000c000
000000c000
000001c000
0000018000
0000018000
0000018000
0000018000
0000018000
0000018000
0000018000
0000018000
0000018000
0000018000
0000018000
0000038000
0000038000
0000030000
0000030000
0000030000
0000030000
0000030000
0000030000
0000030000
0000030000
0000030000
0000030000
0000070000
0000070000
0000060000
0000060000
0000060000
0000060000
0000060000
0000060000
0000060000
0000060000
0300060000
0f80060000
3f800e0000
e7800e0000
07c00c0000
03c00c0000
03c00c0000
03e00c0000
01e00c0000
01e00c0000
01e00c0000
00f00c0000
00f00c0000
00f00c0000
00781c0000
00781c0000
0078180000
003c180000
003c180000
003c180000
003c180000
001e180000
001e180000
001e180000
000f180000
000f180000
000f380000
0007b80000
0007b80000
0007b00000
0003b00000
0003f00000
0003f00000
0001f00000
0001f00000
0001f00000
0000f00000
0000f00000
0000f00000
0000700000
0000700000
0000600000
0000200000
0000200000
0000200000
0000100000
0000100000
ENDCHAR
STARTCHAR Radical4Extens
ENCODING 39
SWIDTH 230 0
DWIDTH 8 0
BBX 8 2 0 80
BITMAP
ff
ff
ENDCHAR
STARTCHAR Radical5
ENCODING 40
SWIDTH 939 0
DWIDTH 32 0
BBX 23 141 2 -58
BITMAP
00000c
00000c
00000c
00000c
00000c
00000c
00000c
00000c
00000c
00000c
00000c
00000c
00000c
00000c
00000c
00000c
00000c
00000c
00000c
00000c
00000c
00000c
00000c
00000c
00000c
00000c
00000c
00000c
00000c
00000c
00000c
00000c
00000c
00000c
00000c
00000c
00000c
00000c
00000c
00000c
00000c
00000c
00000c
00000c
00000c
00000c
00000c
00000c
00000c
00000c
00000c
00000c
00000c
00000c
00000c
00000c
00000c
00000c
00000c
00000c
00000c
00000c
00000c
00000c
00000c
00000c
00000c
00000c
00000c
00000c
00000c
00000c
00000c
00000c
00000c
00000c
00000c
00000c
00000c
00000c
00000c
00000c
00000c
00000c
00000c
00000c
00000c
01800c
07800c
1f800c
77c00c
c7c00c
03c00c
03e00c
03e00c
01e00c
01f00c
01f00c
00f00c
00f80c
00f80c
00780c
007c0c
007c0c
003c0c
003e0c
003e0c
001e0c
001f0c
001f0c
000f0c
000f8c
000f8c
00078c
0007cc
0007cc
0003cc
0003ec
0003ec
0001ec
0001fc
0001fc
0000fc
0000fc
0000fc
00007c
00007c
00007c
00003c
00003c
00003c
00001c
00001c
00001c
00000c
00000c
00000c
000004
000004
000004
000002
ENDCHAR
STARTCHAR Radical5VertExtens
ENCODING 41
SWIDTH 939 0
DWIDTH 32 0
BBX 2 10 22 0
BITMAP
c0
c0
c0
c0
c0
c0
c0
c0
c0
c0
ENDCHAR
STARTCHAR Radical5Top
ENCODING 42
SWIDTH 939 0
DWIDTH 32 0
BBX 10 10 22 0
BITMAP
ffc0
ffc0
c000
c000
c000
c000
c000
c000
c000
c000
ENDCHAR
STARTCHAR Radical5Extens
ENCODING 43
SWIDTH 230 0
DWIDTH 8 0
BBX 8 2 0 8
BITMAP
ff
ff
ENDCHAR
STARTCHAR FixedFreeRadical1
ENCODING 44
SWIDTH 805 0
DWIDTH 27 0
BBX 23 37 3 -25
BITMAP
000006
000006
000006
000006
00000c
00000c
00000c
000018
000018
000018
000030
000030
000030
000030
000060
020060
0e0060
3e00c0
ee00c0
8f00c0
070180
078180
038180
03c180
01c300
01e300
00e300
00f600
00f600
007e00
007c00
003c00
003c00
001c00
001800
000800
000800
ENDCHAR
STARTCHAR FixedFreeRadical2
ENCODING 45
SWIDTH 924 0
DWIDTH 31 0
BBX 27 56 3 -30
BITMAP
00000060
000000c0
000000c0
000000c0
000000c0
00000180
00000180
00000180
00000180
00000180
00000300
00000300
00000300
00000300
00000300
00000600
00000600
00000600
00000600
00000600
00000c00
00000c00
00000c00
00000c00
00001c00
00001800
00001800
00001800
00001800
02003800
0e003000
3f003000
ef003000
8f803000
07807000
07c06000
03c06000
03e06000
01e06000
01f0c000
00f0c000
00f8c000
0078c000
0079c000
003d8000
003d8000
001f8000
001f8000
000f8000
000f0000
000f0000
00070000
00070000
00030000
00020000
00010000
ENDCHAR
STARTCHAR FixedFreeRadical3
ENCODING 46
SWIDTH 1051 0
DWIDTH 36 0
BBX 31 98 3 -39
BITMAP
00000006
0000000c
0000000c
0000000c
0000000c
0000000c
0000000c
00000008
00000018
00000018
00000018
00000018
00000018
00000018
00000030
00000030
00000030
00000030
00000030
00000030
00000030
00000060
00000060
00000060
00000060
00000060
00000060
00000060
000000c0
000000c0
000000c0
000000c0
000000c0
000000c0
000000c0
00000180
00000180
00000180
00000180
00000180
00000180
00000180
00000300
00000300
00000300
00000300
00000300
00000300
00000600
00000600
00000600
00000600
00000600
00000600
00000600
00000c00
00000c00
00000c00
00000c00
00000c00
00000c00
00000c00
01001800
07001800
1f001800
7f001800
8f801800
07801800
07801800
03c03000
03c03000
03e03000
01e03000
01e03000
01f03000
00f07000
00f06000
00786000
00786000
00786000
003c6000
003c6000
003ec000
001ec000
001ec000
000fc000
000fc000
000fc000
0007c000
00078000
00078000
00038000
00038000
00018000
00018000
00018000
00008000
00008000
ENDCHAR
STARTCHAR FixedFreeRadical4
ENCODING 47
SWIDTH 1070 0
DWIDTH 36 0
BBX 30 133 2 -51
BITMAP
0000000c
0000000c
00000018
00000018
00000018
00000018
00000018
00000018
00000018
00000018
00000018
00000018
00000018
00000018
00000010
00000030
00000030
00000030
00000030
00000030
00000030
00000030
00000030
00000030
00000030
00000030
00000030
00000060
00000060
00000060
00000060
00000060
00000060
00000060
00000060
00000060
00000060
00000060
00000060
000000c0
000000c0
000000c0
000000c0
000000c0
000000c0
000000c0
000000c0
000000c0
000000c0
000000c0
000000c0
000001c0
00000180
00000180
00000180
00000180
00000180
00000180
00000180
00000180
00000180
00000180
00000180
00000380
00000300
00000300
00000300
00000300
00000300
00000300
00000300
00000300
00000300
00000300
00000300
00000300
00000700
00000600
00000600
00000600
00000600
00000600
00000600
00000600
00000600
00000600
03000600
0f800600
3f800e00
e7800c00
07c00c00
03c00c00
03c00c00
03e00c00
01e00c00
01e00c00
01e00c00
00f00c00
00f00c00
00f00c00
00781c00
00781c00
00781800
003c1800
003c1800
003c1800
003c1800
001e1800
001e1800
001e1800
000f1800
000f1800
000f3800
0007b800
0007b000
0007b000
0003b000
0003f000
0003f000
0001f000
0001f000
0001f000
0000f000
0000f000
0000f000
00007000
00007000
00006000
00002000
00002000
00002000
00001000
00001000
ENDCHAR
STARTCHAR TexRad1
ENCODING 48
SWIDTH 805 0
DWIDTH 27 0
BBX 26 37 2 -35
BITMAP
000003c0
000003c0
00000600
00000600
00000600
00000600
00000c00
00000c00
00000c00
00001800
00001800
00001800
00001800
00003000
00003000
01003000
06006000
1f006000
77006000
c780c000
0780c000
03c0c000
03c0c000
01e18000
01e18000
00f18000
00f30000
007b0000
007b0000
003b0000
003e0000
001e0000
001e0000
000c0000
000c0000
00040000
00040000
ENDCHAR
STARTCHAR TexRad2
ENCODING 49
SWIDTH 924 0
DWIDTH 31 0
BBX 30 56 2 -54
BITMAP
0000007c
0000007c
00000060
00000060
000000c0
000000c0
000000c0
000000c0
000000c0
00000180
00000180
00000180
00000180
00000180
00000300
00000300
00000300
00000300
00000700
00000600
00000600
00000600
00000600
00000e00
00000c00
00000c00
00000c00
00000c00
00001800
01001800
07001800
1f801800
77801800
c7c03000
03c03000
03e03000
01e03000
01f07000
00f06000
00f06000
00786000
00786000
007ce000
003cc000
003ec000
001ec000
001fc000
000fc000
000f8000
00078000
00078000
00038000
00038000
00010000
00010000
00008000
ENDCHAR
STARTCHAR TexRad3
ENCODING 50
SWIDTH 1051 0
DWIDTH 36 0
BBX 34 98 2 -96
BITMAP
00000007c0
00000007c0
0000000600
0000000600
0000000400
0000000c00
0000000c00
0000000c00
0000000c00
0000000c00
0000000c00
0000000800
0000001800
0000001800
0000001800
0000001800
0000001800
0000001800
0000001000
0000003000
0000003000
0000003000
0000003000
0000003000
0000003000
0000006000
0000006000
0000006000
0000006000
0000006000
0000006000
0000006000
000000c000
000000c000
000000c000
000000c000
000000c000
000000c000
000000c000
0000018000
0000018000
0000018000
0000018000
0000018000
0000018000
0000018000
0000030000
0000030000
0000030000
0000030000
0000030000
0000030000
0000030000
0000060000
0000060000
0000060000
0000060000
0000060000
0000060000
0000060000
00000c0000
00000c0000
01000c0000
07800c0000
1f800c0000
77800c0000
c7c00c0000
03c0180000
03c0180000
01e0180000
01e0180000
01e0180000
00f0180000
00f0300000
00f0300000
0078300000
0078300000
007c300000
003c300000
003c300000
001e600000
001e600000
001e600000
000f600000
000f600000
000f600000
0007e00000
0007c00000
0007c00000
0003c00000
0003c00000
0001c00000
0001c00000
0001c00000
0000800000
0000800000
0000800000
0000400000
ENDCHAR
STARTCHAR TexRad4
ENCODING 51
SWIDTH 1070 0
DWIDTH 36 0
BBX 35 133 2 -131
BITMAP
0000000fe0
0000000fe0
0000000c00
0000000c00
0000001800
0000001800
0000001800
0000001800
0000001800
0000001800
0000001800
0000001800
0000001800
0000001800
0000001800
0000001800
0000003000
0000003000
0000003000
0000003000
0000003000
0000003000
0000003000
0000003000
0000003000
0000003000
0000003000
0000003000
0000007000
0000006000
0000006000
0000006000
0000006000
0000006000
0000006000
0000006000
0000006000
0000006000
0000006000
0000006000
000000e000
000000c000
000000c000
000000c000
000000c000
000000c000
000000c000
000000c000
000000c000
000000c000
000000c000
000000c000
000001c000
0000018000
0000018000
0000018000
0000018000
0000018000
0000018000
0000018000
0000018000
0000018000
0000018000
0000018000
0000038000
0000038000
0000030000
0000030000
0000030000
0000030000
0000030000
0000030000
0000030000
0000030000
0000030000
0000030000
0000070000
0000070000
0000060000
0000060000
0000060000
0000060000
0000060000
0000060000
0000060000
0000060000
0300060000
0f80060000
3f800e0000
e7800e0000
07c00c0000
03c00c0000
03c00c0000
03e00c0000
01e00c0000
01e00c0000
01e00c0000
00f00c0000
00f00c0000
00f00c0000
00781c0000
00781c0000
0078180000
003c180000
003c180000
003c180000
001c180000
001e180000
001e180000
001e180000
000f180000
000f180000
000f380000
0007b80000
0007b80000
0007b00000
0003b00000
0003f00000
0003f00000
0001f00000
0001f00000
0001f00000
0000f00000
0000f00000
0000f00000
0000700000
0000700000
0000600000
0000200000
0000200000
0000200000
0000100000
0000100000
ENDCHAR
STARTCHAR TexRad5
ENCODING 52
SWIDTH 939 0
DWIDTH 32 0
BBX 23 141 2 -139
BITMAP
00000c
00000c
00000c
00000c
00000c
00000c
00000c
00000c
00000c
00000c
00000c
00000c
00000c
00000c
00000c
00000c
00000c
00000c
00000c
00000c
00000c
00000c
00000c
00000c
00000c
00000c
00000c
00000c
00000c
00000c
00000c
00000c
00000c
00000c
00000c
00000c
00000c
00000c
00000c
00000c
00000c
00000c
00000c
00000c
00000c
00000c
00000c
00000c
00000c
00000c
00000c
00000c
00000c
00000c
00000c
00000c
00000c
00000c
00000c
00000c
00000c
00000c
00000c
00000c
00000c
00000c
00000c
00000c
00000c
00000c
00000c
00000c
00000c
00000c
00000c
00000c
00000c
00000c
00000c
00000c
00000c
00000c
00000c
00000c
00000c
00000c
00000c
01800c
07800c
1f800c
f7c00c
47c00c
03c00c
03e00c
03e00c
01e00c
01f00c
01f00c
00f00c
00f80c
00f80c
00780c
007c0c
007c0c
003c0c
003e0c
003e0c
001e0c
001f0c
001f0c
000f0c
000f8c
000f8c
00078c
0007cc
0007cc
0003cc
0003ec
0003ec
0001ec
0001fc
0001fc
0000fc
0000fc
0000fc
00007c
00007c
00007c
00003c
00003c
00003c
00001c
00001c
00001c
00000c
00000c
00000c
000004
000004
000004
000002
ENDCHAR
STARTCHAR TexRad5VertExt
ENCODING 53
SWIDTH 939 0
DWIDTH 32 0
BBX 2 10 22 -8
BITMAP
c0
c0
c0
c0
c0
c0
c0
c0
c0
c0
ENDCHAR
STARTCHAR TexRad5Top
ENCODING 54
SWIDTH 939 0
DWIDTH 32 0
BBX 10 10 22 -8
BITMAP
ffc0
ffc0
c000
c000
c000
c000
c000
c000
c000
c000
ENDCHAR
STARTCHAR TexRadExtens
ENCODING 55
SWIDTH 230 0
DWIDTH 8 0
BBX 8 2 0 0
BITMAP
ff
ff
ENDCHAR
STARTCHAR LBrace1
ENCODING 56
SWIDTH 328 0
DWIDTH 11 0
BBX 8 29 2 -6
BITMAP
07
1c
38
38
38
38
38
38
38
38
38
38
38
70
c0
70
38
38
38
38
38
38
38
38
38
38
38
1c
07
ENDCHAR
STARTCHAR LBrace2
ENCODING 57
SWIDTH 344 0
DWIDTH 12 0
BBX 9 43 1 -13
BITMAP
0180
0200
0600
0c00
0c00
0c00
1c00
1c00
1c00
1c00
1c00
1c00
1c00
1c00
1c00
1c00
1c00
1c00
1800
3800
3000
c000
3000
3800
1800
1c00
1c00
1c00
1c00
1c00
1c00
1c00
1c00
1c00
1c00
1c00
1c00
1c00
0c00
0c00
0600
0600
0180
ENDCHAR
STARTCHAR LBrace3
ENCODING 58
SWIDTH 446 0
DWIDTH 15 0
BBX 12 58 2 -20
BITMAP
0030
0040
0080
0180
0300
0300
0700
0600
0600
0e00
0e00
0e00
0e00
0e00
0e00
0e00
0e00
0e00
0e00
0e00
0e00
0e00
0e00
0c00
1c00
1800
3800
7000
e000
e000
7000
3800
1800
1c00
0c00
0e00
0e00
0e00
0e00
0e00
0e00
0e00
0e00
0e00
0e00
0e00
0e00
0e00
0e00
0600
0600
0700
0300
0300
0180
0080
0040
0030
ENDCHAR
STARTCHAR LBrace4
ENCODING 59
SWIDTH 562 0
DWIDTH 19 0
BBX 16 71 1 -27
BITMAP
0001
0006
000c
0018
0030
0070
0060
00e0
00e0
00c0
00c0
01c0
01c0
01c0
01c0
01c0
01c0
01c0
01c0
01c0
01c0
01c0
01c0
01c0
01c0
01c0
01c0
01c0
01c0
0380
0380
0700
0f00
0e00
3800
e000
3800
0e00
0f00
0700
0380
0380
01c0
01c0
01c0
01c0
01c0
01c0
01c0
01c0
01c0
01c0
01c0
01c0
01c0
01c0
01c0
01c0
01c0
01c0
00c0
00c0
00e0
00e0
0060
0070
0030
0018
000c
0006
0001
ENDCHAR
STARTCHAR RBrace1
ENCODING 60
SWIDTH 328 0
DWIDTH 11 0
BBX 8 29 1 -6
BITMAP
e0
38
1c
1c
1c
1c
1c
1c
1c
1c
1c
1c
1c
0e
03
0e
1c
1c
1c
1c
1c
1c
1c
1c
1c
1c
1c
38
e0
ENDCHAR
STARTCHAR RBrace2
ENCODING 61
SWIDTH 344 0
DWIDTH 12 0
BBX 9 43 1 -13
BITMAP
c000
3000
3800
1800
1800
1c00
1c00
1c00
1c00
1c00
1c00
1c00
1c00
1c00
1c00
1c00
1c00
1c00
0c00
0e00
0600
0180
0600
0e00
0c00
1c00
1c00
1c00
1c00
1c00
1c00
1c00
1c00
1c00
1c00
1c00
1800
1800
1800
1800
3000
2000
c000
ENDCHAR
STARTCHAR RBrace3
ENCODING 62
SWIDTH 446 0
DWIDTH 15 0
BBX 12 58 1 -20
BITMAP
c000
2000
1000
0800
0c00
0c00
0600
0600
0600
0700
0700
0700
0700
0700
0700
0700
0700
0700
0700
0700
0700
0700
0300
0300
0380
0180
01c0
00e0
0070
0070
00e0
01c0
0180
0380
0300
0300
0700
0700
0700
0700
0700
0700
0700
0700
0700
0700
0700
0700
0700
0600
0600
0600
0c00
0c00
0800
1000
2000
c000
ENDCHAR
STARTCHAR RBrace4
ENCODING 63
SWIDTH 562 0
DWIDTH 19 0
BBX 16 71 2 -27
BITMAP
8000
6000
3000
1800
0c00
0e00
0600
0700
0700
0300
0300
0380
0380
0380
0380
0380
0380
0380
0380
0380
0380
0380
0380
0380
0380
0380
0380
0380
0380
01c0
01c0
00e0
00f0
0070
001c
0007
001c
0070
00f0
00e0
01c0
01c0
0380
0380
0380
0380
0380
0380
0380
0380
0380
0380
0380
0380
0380
0380
0380
0380
0380
0380
0300
0300
0700
0700
0600
0e00
0c00
1800
3000
6000
8000
ENDCHAR
STARTCHAR LBracket1
ENCODING 64
SWIDTH 333 0
DWIDTH 11 0
BBX 7 29 3 -6
BITMAP
fe
e0
e0
e0
e0
e0
e0
e0
e0
e0
e0
e0
e0
e0
e0
e0
e0
e0
e0
e0
e0
e0
e0
e0
e0
e0
e0
e0
fe
ENDCHAR
STARTCHAR LBracket2
ENCODING 65
SWIDTH 343 0
DWIDTH 12 0
BBX 8 43 3 -13
BITMAP
ff
e0
e0
e0
e0
e0
e0
e0
e0
e0
e0
e0
e0
e0
e0
e0
e0
e0
e0
e0
e0
e0
e0
e0
e0
e0
e0
e0
e0
e0
e0
e0
e0
e0
e0
e0
e0
e0
e0
e0
e0
e0
ff
ENDCHAR
STARTCHAR LBracket3
ENCODING 66
SWIDTH 353 0
DWIDTH 12 0
BBX 8 58 3 -20
BITMAP
ff
e0
e0
e0
e0
e0
e0
e0
e0
e0
e0
e0
e0
e0
e0
e0
e0
e0
e0
e0
e0
e0
e0
e0
e0
e0
e0
e0
e0
e0
e0
e0
e0
e0
e0
e0
e0
e0
e0
e0
e0
e0
e0
e0
e0
e0
e0
e0
e0
e0
e0
e0
e0
e0
e0
e0
e0
ff
ENDCHAR
STARTCHAR LBracket4
ENCODING 67
SWIDTH 363 0
DWIDTH 12 0
BBX 8 71 3 -27
BITMAP
ff
e0
e0
e0
e0
e0
e0
e0
e0
e0
e0
e0
e0
e0
e0
e0
e0
e0
e0
e0
e0
e0
e0
e0
e0
e0
e0
e0
e0
e0
e0
e0
e0
e0
e0
e0
e0
e0
e0
e0
e0
e0
e0
e0
e0
e0
e0
e0
e0
e0
e0
e0
e0
e0
e0
e0
e0
e0
e0
e0
e0
e0
e0
e0
e0
e0
e0
e0
e0
e0
ff
ENDCHAR
STARTCHAR RBracket1
ENCODING 68
SWIDTH 333 0
DWIDTH 11 0
BBX 7 29 1 -6
BITMAP
fe
0e
0e
0e
0e
0e
0e
0e
0e
0e
0e
0e
0e
0e
0e
0e
0e
0e
0e
0e
0e
0e
0e
0e
0e
0e
0e
0e
fe
ENDCHAR
STARTCHAR RBracket2
ENCODING 69
SWIDTH 343 0
DWIDTH 12 0
BBX 8 43 1 -13
BITMAP
ff
07
07
07
07
07
07
07
07
07
07
07
07
07
07
07
07
07
07
07
07
07
07
07
07
07
07
07
07
07
07
07
07
07
07
07
07
07
07
07
07
07
ff
ENDCHAR
STARTCHAR RBracket3
ENCODING 70
SWIDTH 353 0
DWIDTH 12 0
BBX 8 58 1 -20
BITMAP
ff
07
07
07
07
07
07
07
07
07
07
07
07
07
07
07
07
07
07
07
07
07
07
07
07
07
07
07
07
07
07
07
07
07
07
07
07
07
07
07
07
07
07
07
07
07
07
07
07
07
07
07
07
07
07
07
07
ff
ENDCHAR
STARTCHAR RBracket4
ENCODING 71
SWIDTH 363 0
DWIDTH 12 0
BBX 8 71 1 -27
BITMAP
ff
07
07
07
07
07
07
07
07
07
07
07
07
07
07
07
07
07
07
07
07
07
07
07
07
07
07
07
07
07
07
07
07
07
07
07
07
07
07
07
07
07
07
07
07
07
07
07
07
07
07
07
07
07
07
07
07
07
07
07
07
07
07
07
07
07
07
07
07
07
ff
ENDCHAR
STARTCHAR LParen1
ENCODING 72
SWIDTH 321 0
DWIDTH 11 0
BBX 8 29 2 -6
BITMAP
01
02
04
08
18
30
30
70
70
60
e0
e0
e0
e0
e0
e0
e0
e0
e0
60
70
70
30
30
18
08
04
02
01
ENDCHAR
STARTCHAR LParen2
ENCODING 73
SWIDTH 313 0
DWIDTH 11 0
BBX 8 43 2 -13
BITMAP
01
02
06
0c
08
18
18
30
30
30
70
60
60
60
60
e0
e0
e0
e0
e0
e0
e0
e0
e0
e0
e0
e0
e0
60
60
60
60
70
30
30
30
18
18
0c
0c
06
02
01
ENDCHAR
STARTCHAR LParen3
ENCODING 74
SWIDTH 334 0
DWIDTH 11 0
BBX 8 57 2 -20
BITMAP
01
01
02
06
04
0c
08
18
18
38
30
30
30
70
70
70
60
60
60
e0
e0
e0
e0
e0
e0
e0
e0
e0
e0
e0
e0
e0
e0
e0
e0
e0
e0
e0
60
60
60
70
70
70
30
30
30
38
18
18
08
0c
04
06
02
02
01
ENDCHAR
STARTCHAR LParen4
ENCODING 75
SWIDTH 380 0
DWIDTH 13 0
BBX 10 71 2 -27
BITMAP
0040
0080
0180
0300
0200
0600
0400
0c00
0c00
1800
1800
1800
3800
3000
3000
3000
7000
7000
7000
7000
6000
6000
e000
e000
e000
e000
e000
e000
e000
e000
e000
e000
e000
e000
e000
e000
e000
e000
e000
e000
e000
e000
e000
e000
e000
e000
e000
e000
6000
6000
6000
7000
7000
7000
7000
3000
3000
3000
3800
1800
1800
1800
0c00
0c00
0400
0600
0200
0300
0100
0080
0040
ENDCHAR
STARTCHAR RParen1
ENCODING 76
SWIDTH 321 0
DWIDTH 11 0
BBX 8 29 1 -6
BITMAP
80
40
20
10
18
0c
0c
0e
0e
06
07
07
07
07
07
07
07
07
07
06
0e
0e
0c
0c
18
10
20
40
80
ENDCHAR
STARTCHAR RParen2
ENCODING 77
SWIDTH 313 0
DWIDTH 11 0
BBX 8 43 1 -13
BITMAP
80
40
60
30
10
18
18
0c
0c
0c
0e
06
06
06
06
07
07
07
07
07
07
07
07
07
07
07
07
07
06
06
06
06
0e
0c
0c
0c
18
18
10
30
60
40
80
ENDCHAR
STARTCHAR RParen3
ENCODING 78
SWIDTH 334 0
DWIDTH 11 0
BBX 9 57 1 -20
BITMAP
8000
4000
6000
2000
3000
1800
1800
0c00
0c00
0c00
0600
0600
0600
0700
0700
0700
0300
0300
0300
0380
0380
0380
0380
0380
0380
0380
0380
0380
0380
0380
0380
0380
0380
0380
0380
0380
0380
0380
0300
0300
0300
0700
0700
0700
0600
0600
0600
0c00
0c00
0c00
1800
1800
1000
3000
2000
4000
8000
ENDCHAR
STARTCHAR RParen4
ENCODING 79
SWIDTH 380 0
DWIDTH 13 0
BBX 10 71 1 -27
BITMAP
8000
4000
2000
3000
1000
1800
0800
0c00
0c00
0600
0600
0600
0700
0300
0300
0300
0380
0380
0380
0380
0180
0180
0180
01c0
01c0
01c0
01c0
01c0
01c0
01c0
01c0
01c0
01c0
01c0
01c0
01c0
01c0
01c0
01c0
01c0
01c0
01c0
01c0
01c0
01c0
01c0
01c0
01c0
01c0
0180
0180
0380
0380
0380
0380
0300
0300
0300
0700
0600
0600
0600
0c00
0c00
0800
1800
1000
3000
6000
4000
8000
ENDCHAR
STARTCHAR DblLBracket1
ENCODING 80
SWIDTH 448 0
DWIDTH 15 0
BBX 11 29 3 -6
BITMAP
ffe0
8e00
8e00
8e00
8e00
8e00
8e00
8e00
8e00
8e00
8e00
8e00
8e00
8e00
8e00
8e00
8e00
8e00
8e00
8e00
8e00
8e00
8e00
8e00
8e00
8e00
8e00
8e00
ffe0
ENDCHAR
STARTCHAR DblLBracket2
ENCODING 81
SWIDTH 458 0
DWIDTH 16 0
BBX 12 43 3 -13
BITMAP
fff0
8e00
8e00
8e00
8e00
8e00
8e00
8e00
8e00
8e00
8e00
8e00
8e00
8e00
8e00
8e00
8e00
8e00
8e00
8e00
8e00
8e00
8e00
8e00
8e00
8e00
8e00
8e00
8e00
8e00
8e00
8e00
8e00
8e00
8e00
8e00
8e00
8e00
8e00
8e00
8e00
8e00
fff0
ENDCHAR
STARTCHAR DblLBracket3
ENCODING 82
SWIDTH 468 0
DWIDTH 16 0
BBX 12 58 3 -20
BITMAP
fff0
8e00
8e00
8e00
8e00
8e00
8e00
8e00
8e00
8e00
8e00
8e00
8e00
8e00
8e00
8e00
8e00
8e00
8e00
8e00
8e00
8e00
8e00
8e00
8e00
8e00
8e00
8e00
8e00
8e00
8e00
8e00
8e00
8e00
8e00
8e00
8e00
8e00
8e00
8e00
8e00
8e00
8e00
8e00
8e00
8e00
8e00
8e00
8e00
8e00
8e00
8e00
8e00
8e00
8e00
8e00
8e00
fff0
ENDCHAR
STARTCHAR DblLBracket4
ENCODING 83
SWIDTH 478 0
DWIDTH 16 0
BBX 13 71 3 -27
BITMAP
fff8
8e00
8e00
8e00
8e00
8e00
8e00
8e00
8e00
8e00
8e00
8e00
8e00
8e00
8e00
8e00
8e00
8e00
8e00
8e00
8e00
8e00
8e00
8e00
8e00
8e00
8e00
8e00
8e00
8e00
8e00
8e00
8e00
8e00
8e00
8e00
8e00
8e00
8e00
8e00
8e00
8e00
8e00
8e00
8e00
8e00
8e00
8e00
8e00
8e00
8e00
8e00
8e00
8e00
8e00
8e00
8e00
8e00
8e00
8e00
8e00
8e00
8e00
8e00
8e00
8e00
8e00
8e00
8e00
8e00
fff8
ENDCHAR
STARTCHAR DblRBracket1
ENCODING 84
SWIDTH 448 0
DWIDTH 15 0
BBX 11 29 1 -6
BITMAP
ffe0
0e20
0e20
0e20
0e20
0e20
0e20
0e20
0e20
0e20
0e20
0e20
0e20
0e20
0e20
0e20
0e20
0e20
0e20
0e20
0e20
0e20
0e20
0e20
0e20
0e20
0e20
0e20
ffe0
ENDCHAR
STARTCHAR DblRBracket2
ENCODING 85
SWIDTH 458 0
DWIDTH 16 0
BBX 12 43 1 -13
BITMAP
fff0
0710
0710
0710
0710
0710
0710
0710
0710
0710
0710
0710
0710
0710
0710
0710
0710
0710
0710
0710
0710
0710
0710
0710
0710
0710
0710
0710
0710
0710
0710
0710
0710
0710
0710
0710
0710
0710
0710
0710
0710
0710
fff0
ENDCHAR
STARTCHAR DblRBracket3
ENCODING 86
SWIDTH 468 0
DWIDTH 16 0
BBX 12 58 1 -20
BITMAP
fff0
0710
0710
0710
0710
0710
0710
0710
0710
0710
0710
0710
0710
0710
0710
0710
0710
0710
0710
0710
0710
0710
0710
0710
0710
0710
0710
0710
0710
0710
0710
0710
0710
0710
0710
0710
0710
0710
0710
0710
0710
0710
0710
0710
0710
0710
0710
0710
0710
0710
0710
0710
0710
0710
0710
0710
0710
fff0
ENDCHAR
STARTCHAR DblRBracket4
ENCODING 87
SWIDTH 478 0
DWIDTH 16 0
BBX 12 71 1 -27
BITMAP
fff0
0710
0710
0710
0710
0710
0710
0710
0710
0710
0710
0710
0710
0710
0710
0710
0710
0710
0710
0710
0710
0710
0710
0710
0710
0710
0710
0710
0710
0710
0710
0710
0710
0710
0710
0710
0710
0710
0710
0710
0710
0710
0710
0710
0710
0710
0710
0710
0710
0710
0710
0710
0710
0710
0710
0710
0710
0710
0710
0710
0710
0710
0710
0710
0710
0710
0710
0710
0710
0710
fff0
ENDCHAR
STARTCHAR LAngleBracket1
ENCODING 88
SWIDTH 363 0
DWIDTH 12 0
BBX 9 29 1 -6
BITMAP
0080
0180
0100
0300
0200
0600
0600
0c00
0c00
1800
1800
3000
7000
6000
e000
6000
7000
3000
3800
1800
0c00
0c00
0600
0600
0200
0300
0100
0180
0080
ENDCHAR
STARTCHAR LAngleBracket2
ENCODING 89
SWIDTH 341 0
DWIDTH 12 0
BBX 9 43 1 -13
BITMAP
0180
0100
0300
0300
0200
0600
0600
0600
0c00
0c00
0c00
1800
1800
1800
1800
3000
3000
3000
7000
6000
6000
e000
6000
6000
7000
3000
3000
3000
1800
1800
1800
1800
0c00
0c00
0c00
0600
0600
0600
0200
0300
0300
0100
0180
ENDCHAR
STARTCHAR LAngleBracket3
ENCODING 90
SWIDTH 341 0
DWIDTH 12 0
BBX 9 57 1 -20
BITMAP
0180
0100
0300
0300
0300
0200
0600
0600
0600
0600
0400
0c00
0c00
0c00
0c00
1800
1800
1800
1800
3800
3000
3000
3000
3000
7000
6000
6000
6000
e000
6000
6000
6000
7000
3000
3000
3000
3000
3800
1800
1800
1800
1800
0c00
0c00
0c00
0c00
0400
0600
0600
0600
0600
0200
0300
0300
0300
0100
0180
ENDCHAR
STARTCHAR LAngleBracket4
ENCODING 91
SWIDTH 356 0
DWIDTH 12 0
BBX 8 71 2 -27
BITMAP
01
03
03
03
03
02
06
06
06
06
06
0c
0c
0c
0c
0c
18
18
18
18
18
30
30
30
30
30
70
60
60
60
60
e0
c0
c0
c0
c0
c0
c0
c0
e0
60
60
60
60
70
30
30
30
30
30
18
18
18
18
18
0c
0c
0c
0c
0c
06
06
06
06
06
02
03
03
03
03
01
ENDCHAR
STARTCHAR RAngleBracket1
ENCODING 92
SWIDTH 363 0
DWIDTH 12 0
BBX 9 29 2 -6
BITMAP
8000
c000
4000
6000
2000
3000
3000
1800
1800
0c00
0c00
0600
0700
0300
0380
0300
0700
0600
0e00
0c00
1800
1800
3000
3000
2000
6000
4000
c000
8000
ENDCHAR
STARTCHAR RAngleBracket2
ENCODING 93
SWIDTH 341 0
DWIDTH 12 0
BBX 9 43 1 -13
BITMAP
c000
4000
6000
6000
2000
3000
3000
3000
1800
1800
1800
0c00
0c00
0c00
0c00
0600
0600
0600
0700
0300
0300
0380
0300
0300
0700
0600
0600
0600
0c00
0c00
0c00
0c00
1800
1800
1800
3000
3000
3000
2000
6000
6000
4000
c000
ENDCHAR
STARTCHAR RAngleBracket3
ENCODING 94
SWIDTH 341 0
DWIDTH 12 0
BBX 9 57 1 -20
BITMAP
c000
4000
6000
6000
6000
2000
3000
3000
3000
3000
1000
1800
1800
1800
1800
0c00
0c00
0c00
0c00
0e00
0600
0600
0600
0600
0700
0300
0300
0300
0380
0300
0300
0300
0700
0600
0600
0600
0600
0e00
0c00
0c00
0c00
0c00
1800
1800
1800
1800
1000
3000
3000
3000
3000
2000
6000
6000
6000
4000
c000
ENDCHAR
STARTCHAR RAngleBracket4
ENCODING 95
SWIDTH 356 0
DWIDTH 12 0
BBX 8 71 2 -27
BITMAP
80
c0
c0
c0
c0
40
60
60
60
60
60
30
30
30
30
30
18
18
18
18
18
0c
0c
0c
0c
0c
0e
06
06
06
06
07
03
03
03
03
03
03
03
07
06
06
06
06
0e
0c
0c
0c
0c
0c
18
18
18
18
18
30
30
30
30
30
60
60
60
60
60
40
c0
c0
c0
c0
80
ENDCHAR
STARTCHAR LCeiling1
ENCODING 96
SWIDTH 371 0
DWIDTH 13 0
BBX 8 29 3 -6
BITMAP
ff
ff
c0
c0
c0
c0
c0
c0
c0
c0
c0
c0
c0
c0
c0
c0
c0
c0
c0
c0
c0
c0
c0
c0
c0
c0
c0
c0
c0
ENDCHAR
STARTCHAR LCeiling2
ENCODING 97
SWIDTH 371 0
DWIDTH 13 0
BBX 8 43 3 -13
BITMAP
ff
ff
c0
c0
c0
c0
c0
c0
c0
c0
c0
c0
c0
c0
c0
c0
c0
c0
c0
c0
c0
c0
c0
c0
c0
c0
c0
c0
c0
c0
c0
c0
c0
c0
c0
c0
c0
c0
c0
c0
c0
c0
c0
ENDCHAR
STARTCHAR LCeiling3
ENCODING 98
SWIDTH 371 0
DWIDTH 13 0
BBX 8 58 3 -20
BITMAP
ff
ff
c0
c0
c0
c0
c0
c0
c0
c0
c0
c0
c0
c0
c0
c0
c0
c0
c0
c0
c0
c0
c0
c0
c0
c0
c0
c0
c0
c0
c0
c0
c0
c0
c0
c0
c0
c0
c0
c0
c0
c0
c0
c0
c0
c0
c0
c0
c0
c0
c0
c0
c0
c0
c0
c0
c0
c0
ENDCHAR
STARTCHAR LCeiling4
ENCODING 99
SWIDTH 371 0
DWIDTH 13 0
BBX 8 71 3 -27
BITMAP
ff
ff
c0
c0
c0
c0
c0
c0
c0
c0
c0
c0
c0
c0
c0
c0
c0
c0
c0
c0
c0
c0
c0
c0
c0
c0
c0
c0
c0
c0
c0
c0
c0
c0
c0
c0
c0
c0
c0
c0
c0
c0
c0
c0
c0
c0
c0
c0
c0
c0
c0
c0
c0
c0
c0
c0
c0
c0
c0
c0
c0
c0
c0
c0
c0
c0
c0
c0
c0
c0
c0
ENDCHAR
STARTCHAR LFloor1
ENCODING 100
SWIDTH 371 0
DWIDTH 13 0
BBX 8 29 3 -6
BITMAP
c0
c0
c0
c0
c0
c0
c0
c0
c0
c0
c0
c0
c0
c0
c0
c0
c0
c0
c0
c0
c0
c0
c0
c0
c0
c0
c0
ff
ff
ENDCHAR
STARTCHAR LFloor2
ENCODING 101
SWIDTH 371 0
DWIDTH 13 0
BBX 8 43 3 -13
BITMAP
c0
c0
c0
c0
c0
c0
c0
c0
c0
c0
c0
c0
c0
c0
c0
c0
c0
c0
c0
c0
c0
c0
c0
c0
c0
c0
c0
c0
c0
c0
c0
c0
c0
c0
c0
c0
c0
c0
c0
c0
c0
ff
ff
ENDCHAR
STARTCHAR LFloor3
ENCODING 102
SWIDTH 371 0
DWIDTH 13 0
BBX 8 58 3 -20
BITMAP
c0
c0
c0
c0
c0
c0
c0
c0
c0
c0
c0
c0
c0
c0
c0
c0
c0
c0
c0
c0
c0
c0
c0
c0
c0
c0
c0
c0
c0
c0
c0
c0
c0
c0
c0
c0
c0
c0
c0
c0
c0
c0
c0
c0
c0
c0
c0
c0
c0
c0
c0
c0
c0
c0
c0
c0
ff
ff
ENDCHAR
STARTCHAR LFloor4
ENCODING 103
SWIDTH 371 0
DWIDTH 13 0
BBX 8 71 3 -27
BITMAP
c0
c0
c0
c0
c0
c0
c0
c0
c0
c0
c0
c0
c0
c0
c0
c0
c0
c0
c0
c0
c0
c0
c0
c0
c0
c0
c0
c0
c0
c0
c0
c0
c0
c0
c0
c0
c0
c0
c0
c0
c0
c0
c0
c0
c0
c0
c0
c0
c0
c0
c0
c0
c0
c0
c0
c0
c0
c0
c0
c0
c0
c0
c0
c0
c0
c0
c0
c0
c0
ff
ff
ENDCHAR
STARTCHAR LFlrClngExtens
ENCODING 104
SWIDTH 371 0
DWIDTH 13 0
BBX 2 10 3 0
BITMAP
c0
c0
c0
c0
c0
c0
c0
c0
c0
c0
ENDCHAR
STARTCHAR LParenTop
ENCODING 105
SWIDTH 400 0
DWIDTH 14 0
BBX 11 29 1 -2
BITMAP
0020
0060
00c0
0180
0300
0700
0600
0e00
0c00
1c00
1800
1800
3800
3800
3800
7000
7000
7000
7000
7000
7000
7000
7000
7000
7000
f000
f000
f000
f000
ENDCHAR
STARTCHAR LParenExtens
ENCODING 106
SWIDTH 400 0
DWIDTH 14 0
BBX 3 10 2 0
BITMAP
e0
e0
e0
e0
e0
e0
e0
e0
e0
e0
ENDCHAR
STARTCHAR LParenBottom
ENCODING 107
SWIDTH 400 0
DWIDTH 14 0
BBX 11 28 2 0
BITMAP
e000
e000
e000
e000
e000
e000
e000
e000
e000
e000
6000
6000
7000
7000
7000
3000
3000
3800
1800
1800
1c00
0c00
0600
0600
0300
0180
00c0
0020
ENDCHAR
STARTCHAR LBraceTop
ENCODING 108
SWIDTH 552 0
DWIDTH 19 0
BBX 9 23 7 -2
BITMAP
0080
0100
0600
0400
0c00
1800
1800
3800
3000
3000
7000
7000
7000
7000
7000
6000
6000
e000
e000
e000
e000
e000
e000
ENDCHAR
STARTCHAR LBraceMiddle
ENCODING 109
SWIDTH 552 0
DWIDTH 19 0
BBX 9 24 2 -3
BITMAP
0380
0380
0380
0380
0380
0700
0700
0700
0e00
1c00
3800
6000
e000
3800
1c00
0e00
0700
0700
0700
0380
0380
0380
0380
0380
ENDCHAR
STARTCHAR LBraceBottom
ENCODING 110
SWIDTH 552 0
DWIDTH 19 0
BBX 9 23 8 0
BITMAP
e000
e000
e000
e000
e000
e000
e000
e000
e000
e000
6000
6000
6000
7000
3000
3000
3000
1800
1800
0c00
0600
0300
0180
ENDCHAR
STARTCHAR BraceExtens
ENCODING 111
SWIDTH 552 0
DWIDTH 19 0
BBX 3 10 8 0
BITMAP
e0
e0
e0
e0
e0
e0
e0
e0
e0
e0
ENDCHAR
STARTCHAR RCeiling1
ENCODING 112
SWIDTH 371 0
DWIDTH 13 0
BBX 9 29 1 -6
BITMAP
ff80
ff80
0180
0180
0180
0180
0180
0180
0180
0180
0180
0180
0180
0180
0180
0180
0180
0180
0180
0180
0180
0180
0180
0180
0180
0180
0180
0180
0180
ENDCHAR
STARTCHAR RCeiling2
ENCODING 113
SWIDTH 371 0
DWIDTH 13 0
BBX 9 43 1 -13
BITMAP
ff80
ff80
0180
0180
0180
0180
0180
0180
0180
0180
0180
0180
0180
0180
0180
0180
0180
0180
0180
0180
0180
0180
0180
0180
0180
0180
0180
0180
0180
0180
0180
0180
0180
0180
0180
0180
0180
0180
0180
0180
0180
0180
0180
ENDCHAR
STARTCHAR RCeiling3
ENCODING 114
SWIDTH 371 0
DWIDTH 13 0
BBX 9 58 1 -20
BITMAP
ff80
ff80
0180
0180
0180
0180
0180
0180
0180
0180
0180
0180
0180
0180
0180
0180
0180
0180
0180
0180
0180
0180
0180
0180
0180
0180
0180
0180
0180
0180
0180
0180
0180
0180
0180
0180
0180
0180
0180
0180
0180
0180
0180
0180
0180
0180
0180
0180
0180
0180
0180
0180
0180
0180
0180
0180
0180
0180
ENDCHAR
STARTCHAR RCeiling4
ENCODING 115
SWIDTH 371 0
DWIDTH 13 0
BBX 9 71 1 -27
BITMAP
ff80
ff80
0180
0180
0180
0180
0180
0180
0180
0180
0180
0180
0180
0180
0180
0180
0180
0180
0180
0180
0180
0180
0180
0180
0180
0180
0180
0180
0180
0180
0180
0180
0180
0180
0180
0180
0180
0180
0180
0180
0180
0180
0180
0180
0180
0180
0180
0180
0180
0180
0180
0180
0180
0180
0180
0180
0180
0180
0180
0180
0180
0180
0180
0180
0180
0180
0180
0180
0180
0180
0180
ENDCHAR
STARTCHAR RFloor1
ENCODING 116
SWIDTH 371 0
DWIDTH 13 0
BBX 9 29 1 -6
BITMAP
0180
0180
0180
0180
0180
0180
0180
0180
0180
0180
0180
0180
0180
0180
0180
0180
0180
0180
0180
0180
0180
0180
0180
0180
0180
0180
0180
ff80
ff80
ENDCHAR
STARTCHAR RFloor2
ENCODING 117
SWIDTH 371 0
DWIDTH 13 0
BBX 9 43 1 -13
BITMAP
0180
0180
0180
0180
0180
0180
0180
0180
0180
0180
0180
0180
0180
0180
0180
0180
0180
0180
0180
0180
0180
0180
0180
0180
0180
0180
0180
0180
0180
0180
0180
0180
0180
0180
0180
0180
0180
0180
0180
0180
0180
ff80
ff80
ENDCHAR
STARTCHAR RFloor3
ENCODING 118
SWIDTH 371 0
DWIDTH 13 0
BBX 9 58 1 -20
BITMAP
0180
0180
0180
0180
0180
0180
0180
0180
0180
0180
0180
0180
0180
0180
0180
0180
0180
0180
0180
0180
0180
0180
0180
0180
0180
0180
0180
0180
0180
0180
0180
0180
0180
0180
0180
0180
0180
0180
0180
0180
0180
0180
0180
0180
0180
0180
0180
0180
0180
0180
0180
0180
0180
0180
0180
0180
ff80
ff80
ENDCHAR
STARTCHAR RFloor4
ENCODING 119
SWIDTH 371 0
DWIDTH 13 0
BBX 9 71 1 -27
BITMAP
0180
0180
0180
0180
0180
0180
0180
0180
0180
0180
0180
0180
0180
0180
0180
0180
0180
0180
0180
0180
0180
0180
0180
0180
0180
0180
0180
0180
0180
0180
0180
0180
0180
0180
0180
0180
0180
0180
0180
0180
0180
0180
0180
0180
0180
0180
0180
0180
0180
0180
0180
0180
0180
0180
0180
0180
0180
0180
0180
0180
0180
0180
0180
0180
0180
0180
0180
0180
0180
ff80
ff80
ENDCHAR
STARTCHAR RFlrClngExtens
ENCODING 120
SWIDTH 371 0
DWIDTH 13 0
BBX 2 10 8 0
BITMAP
c0
c0
c0
c0
c0
c0
c0
c0
c0
c0
ENDCHAR
STARTCHAR RParenTop
ENCODING 121
SWIDTH 400 0
DWIDTH 14 0
BBX 11 29 2 -2
BITMAP
8000
c000
6000
3000
1800
1c00
0c00
0e00
0600
0700
0300
0300
0380
0380
0380
0180
01c0
01c0
01c0
01c0
01c0
01c0
01c0
01c0
01c0
01c0
01e0
01e0
01e0
ENDCHAR
STARTCHAR RParenExtens
ENCODING 122
SWIDTH 400 0
DWIDTH 14 0
BBX 3 10 9 0
BITMAP
e0
e0
e0
e0
e0
e0
e0
e0
e0
e0
ENDCHAR
STARTCHAR RParenBottom
ENCODING 123
SWIDTH 400 0
DWIDTH 14 0
BBX 11 28 2 0
BITMAP
01e0
01e0
01e0
01c0
01c0
01c0
01c0
01c0
01c0
01c0
01c0
01c0
01c0
0180
0380
0380
0380
0300
0700
0600
0600
0c00
0c00
1800
3000
6000
c000
8000
ENDCHAR
STARTCHAR RBraceTop
ENCODING 124
SWIDTH 552 0
DWIDTH 19 0
BBX 9 23 2 -2
BITMAP
8000
4000
3000
1000
1800
0c00
0c00
0e00
0600
0600
0700
0700
0700
0700
0700
0300
0300
0380
0380
0380
0380
0380
0380
ENDCHAR
STARTCHAR RBraceMiddle
ENCODING 125
SWIDTH 552 0
DWIDTH 19 0
BBX 9 24 8 -3
BITMAP
e000
e000
e000
e000
e000
6000
7000
7000
3800
1800
0c00
0700
0780
0e00
1800
3800
7000
7000
6000
e000
e000
e000
e000
e000
ENDCHAR
STARTCHAR RBraceBottom
ENCODING 126
SWIDTH 552 0
DWIDTH 19 0
BBX 9 23 2 0
BITMAP
0380
0380
0380
0380
0380
0380
0300
0300
0700
0700
0700
0700
0700
0600
0600
0e00
0c00
0c00
1800
1000
3000
4000
8000
ENDCHAR
STARTCHAR LBracketTop
ENCODING 128
SWIDTH 363 0
DWIDTH 12 0
BBX 8 5 3 0
BITMAP
ff
e0
e0
e0
e0
ENDCHAR
STARTCHAR LBracketExtens
ENCODING 129
SWIDTH 363 0
DWIDTH 12 0
BBX 3 10 3 0
BITMAP
e0
e0
e0
e0
e0
e0
e0
e0
e0
e0
ENDCHAR
STARTCHAR LBracketBottom
ENCODING 130
SWIDTH 363 0
DWIDTH 12 0
BBX 8 5 3 0
BITMAP
e0
e0
e0
e0
ff
ENDCHAR
STARTCHAR RBracketTop
ENCODING 131
SWIDTH 363 0
DWIDTH 12 0
BBX 8 5 1 0
BITMAP
ff
07
07
07
07
ENDCHAR
STARTCHAR RBracketExtens
ENCODING 132
SWIDTH 363 0
DWIDTH 12 0
BBX 3 10 7 0
BITMAP
e0
e0
e0
e0
e0
e0
e0
e0
e0
e0
ENDCHAR
STARTCHAR RBracketBottom
ENCODING 133
SWIDTH 363 0
DWIDTH 12 0
BBX 8 5 1 0
BITMAP
07
07
07
07
ff
ENDCHAR
STARTCHAR DblLBracketBottom
ENCODING 134
SWIDTH 478 0
DWIDTH 16 0
BBX 13 5 3 0
BITMAP
8e00
8e00
8e00
8e00
fff8
ENDCHAR
STARTCHAR DblLBracketExtens
ENCODING 135
SWIDTH 478 0
DWIDTH 16 0
BBX 7 10 3 0
BITMAP
8e
8e
8e
8e
8e
8e
8e
8e
8e
8e
ENDCHAR
STARTCHAR DblLBracketTop
ENCODING 136
SWIDTH 478 0
DWIDTH 16 0
BBX 13 5 3 0
BITMAP
fff8
8e00
8e00
8e00
8e00
ENDCHAR
STARTCHAR DblRBracketBottom
ENCODING 137
SWIDTH 478 0
DWIDTH 16 0
BBX 12 5 1 0
BITMAP
0710
0710
0710
0710
fff0
ENDCHAR
STARTCHAR DblRBracketExtens
ENCODING 138
SWIDTH 478 0
DWIDTH 16 0
BBX 6 10 7 0
BITMAP
e4
e4
e4
e4
e4
e4
e4
e4
e4
e4
ENDCHAR
STARTCHAR DblRBracketTop
ENCODING 139
SWIDTH 478 0
DWIDTH 16 0
BBX 12 5 1 0
BITMAP
fff0
0710
0710
0710
0710
ENDCHAR
STARTCHAR LeftHook
ENCODING 140
SWIDTH 200 0
DWIDTH 7 0
BBX 7 28 0 0
BITMAP
fe
80
80
80
80
80
80
80
80
80
80
80
80
80
80
80
80
80
80
80
80
80
80
80
80
80
80
80
ENDCHAR
STARTCHAR HookExt
ENCODING 141
SWIDTH 200 0
DWIDTH 7 0
BBX 7 1 0 27
BITMAP
fe
ENDCHAR
STARTCHAR RightHook
ENCODING 142
SWIDTH 200 0
DWIDTH 7 0
BBX 7 28 0 0
BITMAP
fe
02
02
02
02
02
02
02
02
02
02
02
02
02
02
02
02
02
02
02
02
02
02
02
02
02
02
02
ENDCHAR
STARTCHAR Radical1
ENCODING 143
SWIDTH 805 0
DWIDTH 27 0
BBX 26 37 2 -25
BITMAP
000003c0
000003c0
00000600
00000600
00000600
00000600
00000c00
00000c00
00000c00
00001800
00001800
00001800
00001800
00003000
00003000
01003000
06006000
1f006000
77006000
c780c000
0780c000
03c0c000
03c0c000
01e18000
01e18000
00f18000
00f30000
007b0000
007b0000
003b0000
003e0000
001e0000
001e0000
000c0000
000c0000
00040000
00040000
ENDCHAR
STARTCHAR Slash1
ENCODING 144
SWIDTH 317 0
DWIDTH 11 0
BBX 10 28 1 -5
BITMAP
0040
00c0
00c0
0080
0180
0180
0100
0300
0300
0200
0600
0600
0400
0c00
0c00
0800
1800
1800
1000
3000
3000
2000
6000
6000
4000
c000
c000
8000
ENDCHAR
STARTCHAR Slash2
ENCODING 145
SWIDTH 452 0
DWIDTH 15 0
BBX 16 43 0 -13
BITMAP
0003
0006
0006
0006
000c
000c
000c
0008
0018
0018
0010
0030
0030
0020
0060
0060
0040
00c0
00c0
00c0
0180
0180
0180
0100
0300
0300
0200
0600
0600
0400
0c00
0c00
0800
1800
1800
1000
3000
3000
3000
6000
6000
6000
c000
ENDCHAR
STARTCHAR Slash3
ENCODING 146
SWIDTH 591 0
DWIDTH 20 0
BBX 21 58 0 -20
BITMAP
000018
000030
000030
000020
000060
000060
000060
0000c0
0000c0
0000c0
000180
000180
000180
000100
000300
000300
000200
000600
000600
000400
000c00
000c00
000800
001800
001800
001000
003000
003000
003000
006000
006000
006000
004000
00c000
00c000
008000
018000
018000
010000
030000
030000
020000
060000
060000
040000
0c0000
0c0000
080000
180000
180000
180000
300000
300000
300000
200000
600000
600000
c00000
ENDCHAR
STARTCHAR Slash4
ENCODING 147
SWIDTH 716 0
DWIDTH 24 0
BBX 25 71 0 -27
BITMAP
00000180
00000300
00000300
00000300
00000600
00000600
00000600
00000400
00000c00
00000c00
00000800
00001800
00001800
00001000
00003000
00003000
00002000
00006000
00006000
00004000
0000c000
0000c000
00008000
00018000
00018000
00018000
00030000
00030000
00030000
00020000
00060000
00060000
00040000
000c0000
000c0000
00080000
00180000
00180000
00100000
00300000
00300000
00200000
00600000
00600000
00600000
00c00000
00c00000
00c00000
00800000
01800000
01800000
01000000
03000000
03000000
02000000
06000000
06000000
04000000
0c000000
0c000000
08000000
18000000
18000000
18000000
30000000
30000000
30000000
60000000
60000000
60000000
c0000000
ENDCHAR
STARTCHAR BackSlash1
ENCODING 148
SWIDTH 317 0
DWIDTH 11 0
BBX 10 28 1 -5
BITMAP
8000
c000
c000
4000
6000
6000
2000
3000
3000
1000
1800
1800
0800
0c00
0c00
0400
0600
0600
0200
0300
0300
0100
0180
0180
0080
00c0
00c0
0040
ENDCHAR
STARTCHAR BackSlash2
ENCODING 149
SWIDTH 452 0
DWIDTH 15 0
BBX 16 43 0 -13
BITMAP
c000
6000
6000
6000
3000
3000
3000
1000
1800
1800
0800
0c00
0c00
0400
0600
0600
0200
0300
0300
0100
0180
0180
0180
00c0
00c0
00c0
0040
0060
0060
0020
0030
0030
0010
0018
0018
0008
000c
000c
000c
0006
0006
0006
0003
ENDCHAR
STARTCHAR BackSlash3
ENCODING 150
SWIDTH 591 0
DWIDTH 20 0
BBX 21 58 0 -20
BITMAP
c00000
600000
600000
200000
300000
300000
300000
180000
180000
180000
080000
0c0000
0c0000
040000
060000
060000
020000
030000
030000
010000
018000
018000
008000
00c000
00c000
004000
006000
006000
006000
003000
003000
003000
001000
001800
001800
000800
000c00
000c00
000400
000600
000600
000200
000300
000300
000100
000180
000180
000180
0000c0
0000c0
0000c0
000060
000060
000060
000020
000030
000030
000018
ENDCHAR
STARTCHAR BackSlash4
ENCODING 151
SWIDTH 716 0
DWIDTH 24 0
BBX 25 71 0 -27
BITMAP
c0000000
60000000
60000000
60000000
30000000
30000000
30000000
10000000
18000000
18000000
08000000
0c000000
0c000000
04000000
06000000
06000000
02000000
03000000
03000000
01000000
01800000
01800000
00800000
00c00000
00c00000
00c00000
00600000
00600000
00600000
00200000
00300000
00300000
00100000
00180000
00180000
00080000
000c0000
000c0000
00040000
00060000
00060000
00020000
00030000
00030000
00030000
00018000
00018000
00018000
00008000
0000c000
0000c000
00004000
00006000
00006000
00002000
00003000
00003000
00001000
00001800
00001800
00000800
00000c00
00000c00
00000400
00000600
00000600
00000600
00000300
00000300
00000300
00000180
ENDCHAR
STARTCHAR ContourIntegral
ENCODING 152
SWIDTH 390 0
DWIDTH 13 0
BBX 20 43 2 -8
BITMAP
0003c0
000c70
000870
001830
001800
003800
003000
003000
007000
007000
007000
007000
007000
007000
01f800
03fc00
0e7700
0c7300
187180
38f1c0
30e0c0
30e0c0
30e0c0
30e0c0
30e0c0
18e180
18e180
0ce300
07ee00
03fc00
00e000
00e000
00c000
00c000
00c000
00c000
00c000
008000
018000
c18000
e10000
e20000
3c0000
ENDCHAR
STARTCHAR DblContInteg
ENCODING 153
SWIDTH 739 0
DWIDTH 25 0
BBX 32 43 2 -8
BITMAP
0003e03c
000470c7
00087187
00183183
00100380
00300300
00300300
00300700
00300700
00700700
00700700
00700f00
00700f00
00700f00
00ffff00
03ffff80
07600fe0
0c600f60
18600f30
18e00f18
30e00e18
30e00e18
30e00e18
30e00e18
18e00e18
18e00e30
0ce00e60
07e00ee0
03ffffc0
00ffff00
00e00e00
00e00c00
00e00c00
00c00c00
00c00c00
00c00c00
00c01800
01801800
01801800
c1981000
e31c3000
e61c6000
7c078000
ENDCHAR
STARTCHAR CntrClckwContInteg
ENCODING 154
SWIDTH 390 0
DWIDTH 13 0
BBX 20 43 2 -8
BITMAP
0003c0
000670
000c70
001830
001800
003800
003000
003000
007000
007000
007000
007000
007000
007000
01f800
03fe00
0e7700
0c7380
187180
38f0c0
30f0c0
30f0c0
30e1e0
30e3f0
30e6d0
18e080
18e180
0ce300
07ee00
03fc00
00e000
00e000
00e000
00c000
00c000
00c000
00c000
00c000
018000
c18000
e10000
e20000
3c0000
ENDCHAR
STARTCHAR ClckwContInteg
ENCODING 155
SWIDTH 390 0
DWIDTH 13 0
BBX 21 43 1 -8
BITMAP
0001e0
000638
000638
000c18
000c00
001c00
001800
001800
003800
003800
003800
003800
003800
003800
00fc00
03fe00
073b80
0e3980
0c38c0
1878e0
187860
187860
3c7060
7e7060
db7060
0870c0
0c70c0
067180
03f700
01fe00
007000
007000
007000
006000
006000
006000
006000
006000
00c000
60c000
718000
710000
1e0000
ENDCHAR
STARTCHAR SquareContInteg
ENCODING 156
SWIDTH 390 0
DWIDTH 13 0
BBX 20 43 2 -8
BITMAP
0003c0
000470
000c70
001830
001800
003800
003000
003000
003000
007000
007000
007000
007000
007000
007000
3fff80
3fff80
307180
307180
307180
30f180
30e180
30e180
30e180
30e180
30e180
30e180
30e180
3fff80
3fff80
00e000
00e000
00e000
00e000
00c000
00c000
00c000
00c000
018000
c18000
e10000
e20000
7c0000
ENDCHAR
STARTCHAR UnionPlus
ENCODING 157
SWIDTH 853 0
DWIDTH 29 0
BBX 23 30 3 -5
BITMAP
c00006
c00006
c00006
c00006
c00006
c00006
c00006
c00006
c00006
c00006
c01806
c01806
c01806
c01806
c01806
c01806
c7ffe6
c7ffe6
c01806
c01806
c01806
c01806
60180c
60000c
30001c
180038
1e0070
0781e0
03ffc0
007e00
ENDCHAR
STARTCHAR SquareIntersection
ENCODING 158
SWIDTH 853 0
DWIDTH 29 0
BBX 23 30 3 -5
BITMAP
fffffe
fffffe
c00006
c00006
c00006
c00006
c00006
c00006
c00006
c00006
c00006
c00006
c00006
c00006
c00006
c00006
c00006
c00006
c00006
c00006
c00006
c00006
c00006
c00006
c00006
c00006
c00006
c00006
c00006
c00006
ENDCHAR
STARTCHAR SquareUnion
ENCODING 159
SWIDTH 853 0
DWIDTH 29 0
BBX 23 30 3 -5
BITMAP
c00006
c00006
c00006
c00006
c00006
c00006
c00006
c00006
c00006
c00006
c00006
c00006
c00006
c00006
c00006
c00006
c00006
c00006
c00006
c00006
c00006
c00006
c00006
c00006
c00006
c00006
c00006
c00006
fffffe
fffffe
ENDCHAR
STARTCHAR LBracketBar1
ENCODING 160
SWIDTH 232 0
DWIDTH 8 0
BBX 2 29 3 -6
BITMAP
c0
c0
c0
c0
c0
c0
c0
c0
c0
c0
c0
c0
c0
c0
c0
c0
c0
c0
c0
c0
c0
c0
c0
c0
c0
c0
c0
c0
c0
ENDCHAR
STARTCHAR LBracketBar2
ENCODING 161
SWIDTH 232 0
DWIDTH 8 0
BBX 2 43 3 -13
BITMAP
c0
c0
c0
c0
c0
c0
c0
c0
c0
c0
c0
c0
c0
c0
c0
c0
c0
c0
c0
c0
c0
c0
c0
c0
c0
c0
c0
c0
c0
c0
c0
c0
c0
c0
c0
c0
c0
c0
c0
c0
c0
c0
c0
ENDCHAR
STARTCHAR LBracketBar3
ENCODING 162
SWIDTH 232 0
DWIDTH 8 0
BBX 2 58 3 -20
BITMAP
c0
c0
c0
c0
c0
c0
c0
c0
c0
c0
c0
c0
c0
c0
c0
c0
c0
c0
c0
c0
c0
c0
c0
c0
c0
c0
c0
c0
c0
c0
c0
c0
c0
c0
c0
c0
c0
c0
c0
c0
c0
c0
c0
c0
c0
c0
c0
c0
c0
c0
c0
c0
c0
c0
c0
c0
c0
c0
ENDCHAR
STARTCHAR LBracketBar4
ENCODING 163
SWIDTH 232 0
DWIDTH 8 0
BBX 2 71 3 -27
BITMAP
c0
c0
c0
c0
c0
c0
c0
c0
c0
c0
c0
c0
c0
c0
c0
c0
c0
c0
c0
c0
c0
c0
c0
c0
c0
c0
c0
c0
c0
c0
c0
c0
c0
c0
c0
c0
c0
c0
c0
c0
c0
c0
c0
c0
c0
c0
c0
c0
c0
c0
c0
c0
c0
c0
c0
c0
c0
c0
c0
c0
c0
c0
c0
c0
c0
c0
c0
c0
c0
c0
c0
ENDCHAR
STARTCHAR RBracketBar1
ENCODING 164
SWIDTH 232 0
DWIDTH 8 0
BBX 2 29 3 -6
BITMAP
c0
c0
c0
c0
c0
c0
c0
c0
c0
c0
c0
c0
c0
c0
c0
c0
c0
c0
c0
c0
c0
c0
c0
c0
c0
c0
c0
c0
c0
ENDCHAR
STARTCHAR RBracketBar2
ENCODING 165
SWIDTH 232 0
DWIDTH 8 0
BBX 2 43 3 -13
BITMAP
c0
c0
c0
c0
c0
c0
c0
c0
c0
c0
c0
c0
c0
c0
c0
c0
c0
c0
c0
c0
c0
c0
c0
c0
c0
c0
c0
c0
c0
c0
c0
c0
c0
c0
c0
c0
c0
c0
c0
c0
c0
c0
c0
ENDCHAR
STARTCHAR RBracketBar3
ENCODING 166
SWIDTH 232 0
DWIDTH 8 0
BBX 2 58 3 -20
BITMAP
c0
c0
c0
c0
c0
c0
c0
c0
c0
c0
c0
c0
c0
c0
c0
c0
c0
c0
c0
c0
c0
c0
c0
c0
c0
c0
c0
c0
c0
c0
c0
c0
c0
c0
c0
c0
c0
c0
c0
c0
c0
c0
c0
c0
c0
c0
c0
c0
c0
c0
c0
c0
c0
c0
c0
c0
c0
c0
ENDCHAR
STARTCHAR RBracketBar4
ENCODING 167
SWIDTH 232 0
DWIDTH 8 0
BBX 2 71 3 -27
BITMAP
c0
c0
c0
c0
c0
c0
c0
c0
c0
c0
c0
c0
c0
c0
c0
c0
c0
c0
c0
c0
c0
c0
c0
c0
c0
c0
c0
c0
c0
c0
c0
c0
c0
c0
c0
c0
c0
c0
c0
c0
c0
c0
c0
c0
c0
c0
c0
c0
c0
c0
c0
c0
c0
c0
c0
c0
c0
c0
c0
c0
c0
c0
c0
c0
c0
c0
c0
c0
c0
c0
c0
ENDCHAR
STARTCHAR ContourIntegral2
ENCODING 168
SWIDTH 640 0
DWIDTH 22 0
BBX 35 75 2 -22
BITMAP
0000007f00
000001c3c0
00000301e0
00000601e0
00000e01e0
00000c00c0
00001c0000
0000180000
0000380000
0000380000
0000380000
0000700000
0000700000
0000700000
0000700000
0000700000
0000f00000
0000e00000
0000e00000
0000e00000
0000e00000
0000e00000
0000e00000
0000e00000
0000e00000
0007fc0000
001fff0000
0079e38000
00e1e1c000
01c1e06000
0181e03000
0301c01800
0701c01c00
0601c00c00
0601c00c00
0c01c00600
0c01c00600
0c01c00600
0c01c00600
0c01c00600
0c01c00600
0c01c00600
0603c00c00
0603c00c00
0603c00c00
0303c01800
0383803800
0183807000
00c380e000
007383c000
003f8f0000
000ffc0000
0003e00000
0003800000
0003800000
0003800000
0003800000
0003800000
0003800000
0003800000
0003800000
0003800000
0003000000
0003000000
0003000000
0007000000
0006000000
0006000000
0006000000
f00c000000
f80c000000
f818000000
7810000000
7c60000000
0fc0000000
ENDCHAR
STARTCHAR DblContInteg2
ENCODING 169
SWIDTH 1248 0
DWIDTH 42 0
BBX 56 75 2 -22
BITMAP
0000003f0001f8
000000e3c00e1e
00000381e01c1e
00000701e0380f
00000f01e0700f
00000e00e07006
00001e0000e000
00001c0000e000
00003c0001c000
00003c0001c000
00003c0001c000
0000780003c000
00007800038000
00007800038000
00007800038000
0000f800038000
0000f000078000
0000f000078000
0000f000078000
0000f000070000
0000f000070000
0000f000070000
0000f000070000
0001f000070000
0001f000070000
0003ffffff8000
001ffffffff000
003de000077800
0071e0000f1e00
00c1e0000f0700
0181e0000f0380
0301e0000f01c0
0301e0000f00c0
0601e0000e0060
0601e0000e0060
0c01e0000e0070
0c01e0000e0030
0c01e0000e0030
0c01c0000e0030
0c01c0000e0030
0c01c0000e0030
0c03c0000e0030
0e03c0000e0060
0603c0001e0060
0603c0001e0060
0303c0001e00c0
0303c0001c01c0
018380001c0380
00c380001c0700
007380001c1e00
003f80001c7c00
001ffffffff000
0003ffffff8000
000380001c0000
000380001c0000
000380001c0000
000380001c0000
000380001c0000
000380001c0000
000300001c0000
000300001c0000
000300001c0000
00030000180000
00030000180000
00030000180000
00060000380000
00060000300000
00060000300000
00060000300000
f00c0700600000
f80c07c0600000
f81807c0c00000
781003c1800000
3c6003e3000000
0fc000fc000000
ENDCHAR
STARTCHAR CntrClckwContInteg2
ENCODING 170
SWIDTH 640 0
DWIDTH 22 0
BBX 37 75 2 -22
BITMAP
0000007f00
000001c3c0
00000301e0
00000601e0
00000e01e0
00000c00c0
00001c0000
0000180000
0000380000
0000380000
0000380000
0000700000
0000700000
0000700000
0000700000
0000700000
0000f00000
0000e00000
0000e00000
0000e00000
0000e00000
0000e00000
0000e00000
0000e00000
0000e00000
0007f80000
001fff0000
0079e38000
00e1e1e000
01c1e07000
0181e03800
0301e01800
0701c01c00
0601c00c00
0601c00e00
0c01c00600
0c01c00600
0c01c00f00
0c01c01f80
0c01c03fc0
0c01c06660
0c01c0c630
0603c08e18
0603c00c00
0603c00c00
0303c01800
0383803800
0183807000
00c380e000
007383c000
003f8f0000
000ffe0000
0003e00000
0003800000
0003800000
0003800000
0003800000
0003800000
0003800000
0003800000
0003800000
0003800000
0003000000
0003000000
0003000000
0007000000
0006000000
0006000000
0006000000
f00c000000
f80c000000
f818000000
7810000000
3c60000000
0fc0000000
ENDCHAR
STARTCHAR ClckwContInteg2
ENCODING 171
SWIDTH 640 0
DWIDTH 22 0
BBX 37 75 0 -22
BITMAP
0000001fc0
00000070f0
000000c078
0000018078
0000038078
0000030030
0000070000
0000060000
00000e0000
00000e0000
00000e0000
00001c0000
00001c0000
00001c0000
00001c0000
00001c0000
00003c0000
0000380000
0000380000
0000380000
0000380000
0000380000
0000380000
0000380000
0000380000
0001ff0000
0007ffc000
001e38e000
0038787000
0070781800
00e0780c00
00c0700600
01c0700600
0180700300
0180700300
0300700180
0300700180
0780700180
0fc0700180
1f60700180
3360700180
6330700180
c198f00300
0180f00300
0180f00300
00c0f00600
00e0e00e00
0060e01c00
0030e03800
001ce0f000
000fe3c000
0003ff0000
0000f80000
0000e00000
0000e00000
0000e00000
0000e00000
0000e00000
0000e00000
0000e00000
0000e00000
0000e00000
0000c00000
0000c00000
0000c00000
0001c00000
0001800000
0001800000
0001800000
3c03000000
3e03000000
3e06000000
1e04000000
1f18000000
03f0000000
ENDCHAR
STARTCHAR SquareContInteg2
ENCODING 172
SWIDTH 640 0
DWIDTH 22 0
BBX 35 75 2 -22
BITMAP
0000007f00
000001c3c0
00000381e0
00000701e0
00000601e0
00000e0060
00001c0000
00001c0000
00001c0000
00003c0000
0000380000
0000380000
0000780000
0000780000
0000780000
0000700000
0000700000
0000700000
0000700000
0000f00000
0000f00000
0000f00000
0000f00000
0000f00000
0000f00000
0000f00000
0ffffffc00
0ffffffc00
0c00e00c00
0c00e00c00
0c00e00c00
0c00e00c00
0c01e00c00
0c01e00c00
0c01e00c00
0c01e00c00
0c01e00c00
0c01c00c00
0c01c00c00
0c01c00c00
0c01c00c00
0c01c00c00
0c01c00c00
0c03c00c00
0c03c00c00
0c03c00c00
0c03800c00
0c03800c00
0c03800c00
0c03800c00
0ffffffc00
0ffffffc00
0003800000
0003800000
0003800000
0003800000
0003800000
0003800000
0003800000
0003800000
0003800000
0003800000
0003800000
0003000000
0007000000
0007000000
0007000000
0006000000
0006000000
e00c000000
f00c000000
f818000000
f830000000
7c60000000
1f80000000
ENDCHAR
STARTCHAR UnionPlus2
ENCODING 173
SWIDTH 1255 0
DWIDTH 43 0
BBX 37 52 3 -15
BITMAP
c000000018
c000000018
c000000018
c000000018
c000000018
c000000018
c000000018
c000000018
c000000018
c000000018
c000000018
c000000018
c000000018
c000000018
c000000018
c000000018
c000000018
c000000018
c000000018
c000000018
c000000018
c000000018
c000600018
c000600018
c000600018
c000600018
c000600018
c000600018
c000600018
c000600018
c07ffff018
c07ffff018
c000600018
c000600018
c000600018
c000600018
c000600018
6000600030
6000600030
6000600030
7000600070
3000000060
38000000e0
18000000c0
1c000001c0
0e00000380
0700000700
0380001e00
01e0007c00
007c01f000
003fffc000
0007fe0000
ENDCHAR
STARTCHAR SquareIntersection2
ENCODING 174
SWIDTH 1255 0
DWIDTH 43 0
BBX 37 52 3 -15
BITMAP
fffffffff8
fffffffff8
c000000018
c000000018
c000000018
c000000018
c000000018
c000000018
c000000018
c000000018
c000000018
c000000018
c000000018
c000000018
c000000018
c000000018
c000000018
c000000018
c000000018
c000000018
c000000018
c000000018
c000000018
c000000018
c000000018
c000000018
c000000018
c000000018
c000000018
c000000018
c000000018
c000000018
c000000018
c000000018
c000000018
c000000018
c000000018
c000000018
c000000018
c000000018
c000000018
c000000018
c000000018
c000000018
c000000018
c000000018
c000000018
c000000018
c000000018
c000000018
c000000018
c000000018
ENDCHAR
STARTCHAR SquareUnion2
ENCODING 175
SWIDTH 1255 0
DWIDTH 43 0
BBX 37 52 3 -15
BITMAP
c000000018
c000000018
c000000018
c000000018
c000000018
c000000018
c000000018
c000000018
c000000018
c000000018
c000000018
c000000018
c000000018
c000000018
c000000018
c000000018
c000000018
c000000018
c000000018
c000000018
c000000018
c000000018
c000000018
c000000018
c000000018
c000000018
c000000018
c000000018
c000000018
c000000018
c000000018
c000000018
c000000018
c000000018
c000000018
c000000018
c000000018
c000000018
c000000018
c000000018
c000000018
c000000018
c000000018
c000000018
c000000018
c000000018
c000000018
c000000018
c000000018
c000000018
fffffffff8
fffffffff8
ENDCHAR
STARTCHAR DblLBracketBar1
ENCODING 176
SWIDTH 436 0
DWIDTH 15 0
BBX 9 29 3 -6
BITMAP
c180
c180
c180
c180
c180
c180
c180
c180
c180
c180
c180
c180
c180
c180
c180
c180
c180
c180
c180
c180
c180
c180
c180
c180
c180
c180
c180
c180
c180
ENDCHAR
STARTCHAR DblLBracketBar2
ENCODING 177
SWIDTH 436 0
DWIDTH 15 0
BBX 9 43 3 -13
BITMAP
c180
c180
c180
c180
c180
c180
c180
c180
c180
c180
c180
c180
c180
c180
c180
c180
c180
c180
c180
c180
c180
c180
c180
c180
c180
c180
c180
c180
c180
c180
c180
c180
c180
c180
c180
c180
c180
c180
c180
c180
c180
c180
c180
ENDCHAR
STARTCHAR DblLBracketBar3
ENCODING 178
SWIDTH 436 0
DWIDTH 15 0
BBX 9 58 3 -20
BITMAP
c180
c180
c180
c180
c180
c180
c180
c180
c180
c180
c180
c180
c180
c180
c180
c180
c180
c180
c180
c180
c180
c180
c180
c180
c180
c180
c180
c180
c180
c180
c180
c180
c180
c180
c180
c180
c180
c180
c180
c180
c180
c180
c180
c180
c180
c180
c180
c180
c180
c180
c180
c180
c180
c180
c180
c180
c180
c180
ENDCHAR
STARTCHAR DblLBracketBar4
ENCODING 179
SWIDTH 436 0
DWIDTH 15 0
BBX 9 71 3 -27
BITMAP
c180
c180
c180
c180
c180
c180
c180
c180
c180
c180
c180
c180
c180
c180
c180
c180
c180
c180
c180
c180
c180
c180
c180
c180
c180
c180
c180
c180
c180
c180
c180
c180
c180
c180
c180
c180
c180
c180
c180
c180
c180
c180
c180
c180
c180
c180
c180
c180
c180
c180
c180
c180
c180
c180
c180
c180
c180
c180
c180
c180
c180
c180
c180
c180
c180
c180
c180
c180
c180
c180
c180
ENDCHAR
STARTCHAR DblRBracketBar1
ENCODING 180
SWIDTH 436 0
DWIDTH 15 0
BBX 9 29 3 -6
BITMAP
c180
c180
c180
c180
c180
c180
c180
c180
c180
c180
c180
c180
c180
c180
c180
c180
c180
c180
c180
c180
c180
c180
c180
c180
c180
c180
c180
c180
c180
ENDCHAR
STARTCHAR DblRBracketBar2
ENCODING 181
SWIDTH 436 0
DWIDTH 15 0
BBX 9 43 3 -13
BITMAP
c180
c180
c180
c180
c180
c180
c180
c180
c180
c180
c180
c180
c180
c180
c180
c180
c180
c180
c180
c180
c180
c180
c180
c180
c180
c180
c180
c180
c180
c180
c180
c180
c180
c180
c180
c180
c180
c180
c180
c180
c180
c180
c180
ENDCHAR
STARTCHAR DblRBracketBar3
ENCODING 182
SWIDTH 436 0
DWIDTH 15 0
BBX 9 58 3 -20
BITMAP
c180
c180
c180
c180
c180
c180
c180
c180
c180
c180
c180
c180
c180
c180
c180
c180
c180
c180
c180
c180
c180
c180
c180
c180
c180
c180
c180
c180
c180
c180
c180
c180
c180
c180
c180
c180
c180
c180
c180
c180
c180
c180
c180
c180
c180
c180
c180
c180
c180
c180
c180
c180
c180
c180
c180
c180
c180
c180
ENDCHAR
STARTCHAR DblRBracketBar4
ENCODING 183
SWIDTH 436 0
DWIDTH 15 0
BBX 9 71 3 -27
BITMAP
c180
c180
c180
c180
c180
c180
c180
c180
c180
c180
c180
c180
c180
c180
c180
c180
c180
c180
c180
c180
c180
c180
c180
c180
c180
c180
c180
c180
c180
c180
c180
c180
c180
c180
c180
c180
c180
c180
c180
c180
c180
c180
c180
c180
c180
c180
c180
c180
c180
c180
c180
c180
c180
c180
c180
c180
c180
c180
c180
c180
c180
c180
c180
c180
c180
c180
c180
c180
c180
c180
c180
ENDCHAR
STARTCHAR ContourIntegral3
ENCODING 184
SWIDTH 927 0
DWIDTH 32 0
BBX 52 112 2 -39
BITMAP
0000000001fc00
00000000070780
000000001c03c0
000000003803e0
000000007003f0
00000000e003f0
00000001e001f0
00000001c000f0
00000003c00020
00000007800000
00000007800000
00000007800000
0000000f000000
0000000f000000
0000001f000000
0000001f000000
0000001e000000
0000001e000000
0000003e000000
0000003e000000
0000003e000000
0000003c000000
0000003c000000
0000007c000000
0000007c000000
0000007c000000
0000007c000000
0000007c000000
0000007c000000
00000078000000
00000078000000
000000f8000000
000000f8000000
000000f8000000
000000f8000000
000000f8000000
000000f8000000
000000f8000000
000000f8000000
00001fff000000
00007fffe00000
0001f0f9f80000
0003c0f83c0000
000700f80e0000
000e00f0070000
001c00f0038000
003800f001c000
007001f000e000
006001f0006000
00c001f0007000
00c001f0003000
018001f0001800
018001f0001800
018001f0001800
038001f0001c00
030001f0000c00
030001f0000c00
030001f0000c00
030001f0000c00
030001e0000c00
030001e0000c00
030001e0000c00
030001e0000c00
018001e0001800
018001e0001800
018001e0001800
00c003e0003000
00c003e0003000
00e003e0007000
007003e000e000
003003e000c000
003803c001c000
001c03c0038000
000f03c00f0000
000783c01e0000
0001e3c0780000
0000ffc7f00000
00003fffc00000
000003fc000000
000003c0000000
000003c0000000
000003c0000000
00000380000000
00000380000000
00000380000000
00000380000000
00000380000000
00000380000000
00000380000000
00000780000000
00000780000000
00000780000000
00000700000000
00000700000000
00000700000000
00000700000000
00000700000000
00000700000000
00000600000000
00000e00000000
00000e00000000
00000c00000000
00000c00000000
00001c00000000
f0001800000000
f8003800000000
fc003000000000
fc006000000000
7c00c000000000
7e018000000000
1f070000000000
03f80000000000
ENDCHAR
STARTCHAR DblContInteg3
ENCODING 185
SWIDTH 1844 0
DWIDTH 63 0
BBX 83 112 2 -39
BITMAP
0000000001fe000001fc00
00000000070780000e0f00
000000001c03e0001c0780
000000003803e0003807c0
000000007003f0007007c0
00000000e003f000e007e0
00000001e001f001c003e0
00000001c000f003c001c0
00000003c0002003800040
0000000380000007800000
0000000780000007800000
000000078000000f000000
0000000f0000000f000000
0000000f0000000f000000
0000000f0000001f000000
0000001f0000001e000000
0000001e0000001e000000
0000001e0000001e000000
0000001e0000003e000000
0000003e0000003e000000
0000003e0000003c000000
0000003c0000003c000000
0000003c0000003c000000
0000003c0000007c000000
0000007c0000007c000000
0000007c0000007c000000
0000007c0000007c000000
0000007c00000078000000
0000007c00000078000000
0000007800000078000000
0000007800000078000000
00000078000000f8000000
00000078000000f8000000
000000f8000000f8000000
000000f8000000f8000000
000000f8000000f8000000
000000f8000000f8000000
000000f8000000f8000000
000003fffffffffc000000
00001fffffffffff800000
0000fcf8000000ffe00000
0001e0f8000000f8f80000
000780f8000000f03c0000
000f00f8000000f00e0000
001c00f0000000f0070000
003800f0000000f0038000
003000f0000000f0018000
007000f0000001f000c000
00e000f0000001f000e000
00c000f0000001f0006000
00c001f0000001f0007000
018001f0000001f0003000
018001f0000001f0003000
018001f0000001f0003000
030001f0000001f0001800
030001f0000001f0001800
030001f0000001f0001800
030001f0000001f0001800
030001f0000001e0001800
030001e0000001e0001800
030001e0000001e0001800
030001e0000001e0001800
030001e0000001e0001800
018001e0000001e0003000
018001e0000001e0003000
018001e0000001e0003000
00c001e0000003e0007000
00c003e0000003e0006000
00e003e0000003e000e000
007003e0000003e000c000
003003e0000003e0018000
003803c0000003c0038000
001c03c0000003c0070000
000f03c0000003c00e0000
000783c0000003c03c0000
0001e3c0000003c0f80000
0000ffc0000003c7e00000
00003fffffffffff800000
000003fffffffffc000000
000003c0000003c0000000
000003c0000003c0000000
000003c0000003c0000000
000003c000000380000000
000003c000000380000000
000003c000000380000000
000007c000000780000000
0000078000000780000000
0000078000000780000000
0000078000000780000000
0000078000000780000000
0000078000000780000000
0000078000000780000000
0000078000000700000000
0000078000000700000000
0000070000000700000000
0000070000000f00000000
0000070000000f00000000
00000f0000000f00000000
00000e0000000e00000000
00000e0000000e00000000
00000e0000001e00000000
00000c0000001c00000000
00001c0000001c00000000
00001c0000003800000000
78003800f0003800000000
fc003001f8003000000000
fc007001f8006000000000
7e006000fc00e000000000
7e00c000fc01c000000000
3e0180007c030000000000
1f0600003e0e0000000000
03f8000007f00000000000
ENDCHAR
STARTCHAR CntrClckwContInteg3
ENCODING 186
SWIDTH 927 0
DWIDTH 32 0
BBX 54 111 2 -39
BITMAP
0000000001fe00
00000000070780
000000001c03e0
000000003803e0
000000007003f0
00000000e003f0
00000001e001f0
00000003c000e0
00000003c00000
00000007800000
00000007800000
0000000f800000
0000000f000000
0000000f000000
0000001f000000
0000001e000000
0000001e000000
0000003e000000
0000003e000000
0000003e000000
0000003c000000
0000003c000000
0000007c000000
0000007c000000
0000007c000000
0000007c000000
0000007c000000
0000007c000000
00000078000000
00000078000000
000000f8000000
000000f8000000
000000f8000000
000000f8000000
000000f8000000
000000f8000000
000000f8000000
000001f8000000
00001fff800000
00007fffe00000
0001f0f8f80000
0003c0f83c0000
000700f80e0000
000e00f8070000
001c00f0038000
003800f001c000
007001f000e000
006001f0007000
00c001f0003000
00c001f0003800
018001f0001800
018001f0001800
018001f0001c00
038001f0001c00
030001f0000c00
030001f0000c00
030001f0001e00
030001f0003f00
030001e0006d80
030001e000ccc0
030001e0018c60
030001e0030c30
018001e0061818
018001e00c180c
018001e0001800
00c003e0003800
00c003e0003000
00e003e0007000
007003e000e000
003003e000c000
003803c001c000
001c03c0038000
000f03c00f0000
000783c01e0000
0001f3c0f80000
0000ffc7f00000
00003fff800000
000003fc000000
000003c0000000
000003c0000000
000003c0000000
000003c0000000
00000380000000
00000380000000
00000380000000
00000380000000
00000380000000
00000780000000
00000780000000
00000780000000
00000780000000
00000700000000
00000700000000
00000700000000
00000700000000
00000700000000
00000700000000
00000600000000
00000e00000000
00000e00000000
00000c00000000
00000c00000000
00001c00000000
f0001800000000
f8003800000000
fc003000000000
fc006000000000
7c00c000000000
3e018000000000
1f070000000000
03f80000000000
ENDCHAR
STARTCHAR ClckwContInteg3
ENCODING 187
SWIDTH 927 0
DWIDTH 32 0
BBX 54 111 -1 -39
BITMAP
00000000003f80
0000000001e1f0
000000000380f8
000000000e00f8
000000001e00fc
000000003c00fc
0000000038007c
0000000078001c
00000000f00000
00000000f00000
00000001e00000
00000001e00000
00000001e00000
00000003c00000
00000003c00000
00000003c00000
00000007800000
00000007800000
00000007800000
00000007800000
0000000f800000
0000000f800000
0000000f000000
0000000f000000
0000000f000000
0000000f000000
0000000f000000
0000000f000000
0000001f000000
0000001f000000
0000001e000000
0000001e000000
0000001e000000
0000001e000000
0000001e000000
0000001e000000
0000001e000000
0000003e000000
000003ffe00000
00001ffff80000
00003e3e3e0000
0000f03e0f8000
0001e03e03c000
0003803e00e000
0007003e007000
000e003c003800
001c003c001c00
0018003c000c00
0038003c000e00
0030003c000600
0070003c000700
0060003c000300
0060003c000300
00e0003c000380
00c0007c000180
00c0007c000180
01e0007c000180
03f0007c000180
06d8007c000180
0ccc0078000180
18c60078000180
30c30078000180
60618078000300
c060c078000300
00600078000300
00300078000600
00300078000600
001800f8000c00
001c00f8001c00
000e00f8003800
000600f0007000
000780f000f000
0003c0f001e000
0000e0f0078000
00007cf01f0000
00001ff1fc0000
000007fff00000
000000ff800000
000000f8000000
000000f8000000
000000f8000000
000000f8000000
000000f8000000
000000f8000000
000000f0000000
000000f0000000
000000f0000000
000000f0000000
000000f0000000
000000f0000000
000000f0000000
000000e0000000
000000e0000000
000000e0000000
000000e0000000
000000e0000000
000001c0000000
000001c0000000
000001c0000000
00000180000000
00000380000000
00000380000000
00000300000000
1e000700000000
1f000600000000
1f800c00000000
1f800c00000000
0f801800000000
0f807000000000
03e1c000000000
00fe0000000000
ENDCHAR
STARTCHAR SquareContInteg3
ENCODING 188
SWIDTH 927 0
DWIDTH 32 0
BBX 52 112 2 -39
BITMAP
0000000001fe00
00000000070f80
000000001c03e0
000000003803e0
000000007003f0
00000000e003f0
00000001e001f0
00000001c000f0
00000003c00020
00000007800000
00000007800000
0000000f800000
0000000f000000
0000000f000000
0000001f000000
0000001e000000
0000001e000000
0000003e000000
0000003e000000
0000003e000000
0000003c000000
0000003c000000
0000007c000000
0000007c000000
0000007c000000
0000007c000000
0000007c000000
0000007c000000
00000078000000
00000078000000
000000f8000000
000000f8000000
000000f8000000
000000f8000000
000000f8000000
000000f8000000
000000f8000000
000000f8000000
000000f8000000
01fffffffff800
01fffffffff800
018000f8001800
018000f8001800
018000f0001800
018000f0001800
018000f0001800
018001f0001800
018001f0001800
018001f0001800
018001f0001800
018001f0001800
018001f0001800
018001f0001800
018001f0001800
018001f0001800
018001f0001800
018001f0001800
018001f0001800
018001e0001800
018001e0001800
018001e0001800
018001e0001800
018001e0001800
018001e0001800
018001e0001800
018003e0001800
018003e0001800
018003e0001800
018003e0001800
018003e0001800
018003c0001800
018003c0001800
018003c0001800
018003c0001800
018003c0001800
018003c0001800
01fffffffff800
01fffffffff800
000003c0000000
000003c0000000
000003c0000000
000003c0000000
000003c0000000
00000380000000
00000380000000
00000380000000
00000380000000
00000380000000
00000380000000
00000380000000
00000780000000
00000780000000
00000700000000
00000700000000
00000700000000
00000700000000
00000700000000
00000700000000
00000600000000
00000e00000000
00000e00000000
00000c00000000
00000c00000000
00001c00000000
f0001800000000
f8003800000000
fc003000000000
fc006000000000
7c00c000000000
7e018000000000
1f070000000000
07f80000000000
ENDCHAR
STARTCHAR UnionPlus3
ENCODING 189
SWIDTH 2024 0
DWIDTH 69 0
BBX 61 77 4 -27
BITMAP
e000000000000038
e000000000000038
e000000000000038
e000000000000038
e000000000000038
e000000000000038
e000000000000038
e000000000000038
e000000000000038
e000000000000038
e000000000000038
e000000000000038
e000000000000038
e000000000000038
e000000000000038
e000000000000038
e000000000000038
e000000000000038
e000000000000038
e000000000000038
e000000000000038
e000000000000038
e000000000000038
e000000000000038
e000000000000038
e000000000000038
e000000000000038
e000000000000038
e000000000000038
e000000000000038
e000000700000038
e000000700000038
e000000700000038
e000000700000038
e000000700000038
e000000700000038
e000000700000038
e000000700000038
e000000700000038
e000000700000038
e000000700000038
e000000700000038
e000000700000038
e000000700000038
e000000700000038
e000000700000038
e000000700000038
e007ffffffff0038
e007ffffffff0038
e000000700000038
e000000700000038
e000000700000038
7000000700000030
7000000700000070
7000000700000070
7000000700000070
38000007000000e0
38000007000000e0
3c000007000000e0
1c000007000001c0
1e000007000003c0
0e00000700000380
0700000700000700
0780000700000f00
0380000000000e00
01c0000000001c00
00e0000000003800
0078000000007000
003c00000001e000
001e00000003c000
000f8000000f8000
0007e000003f0000
0001fc0000fc0000
00007f800ff80000
00001fffffe00000
000007ffff000000
0000007ff0000000
ENDCHAR
STARTCHAR SquareIntersection3
ENCODING 190
SWIDTH 2024 0
DWIDTH 69 0
BBX 61 77 4 -27
BITMAP
fffffffffffffff8
fffffffffffffff8
fffffffffffffff8
e000000000000038
e000000000000038
e000000000000038
e000000000000038
e000000000000038
e000000000000038
e000000000000038
e000000000000038
e000000000000038
e000000000000038
e000000000000038
e000000000000038
e000000000000038
e000000000000038
e000000000000038
e000000000000038
e000000000000038
e000000000000038
e000000000000038
e000000000000038
e000000000000038
e000000000000038
e000000000000038
e000000000000038
e000000000000038
e000000000000038
e000000000000038
e000000000000038
e000000000000038
e000000000000038
e000000000000038
e000000000000038
e000000000000038
e000000000000038
e000000000000038
e000000000000038
e000000000000038
e000000000000038
e000000000000038
e000000000000038
e000000000000038
e000000000000038
e000000000000038
e000000000000038
e000000000000038
e000000000000038
e000000000000038
e000000000000038
e000000000000038
e000000000000038
e000000000000038
e000000000000038
e000000000000038
e000000000000038
e000000000000038
e000000000000038
e000000000000038
e000000000000038
e000000000000038
e000000000000038
e000000000000038
e000000000000038
e000000000000038
e000000000000038
e000000000000038
e000000000000038
e000000000000038
e000000000000038
e000000000000038
e000000000000038
e000000000000038
e000000000000038
e000000000000038
e000000000000038
ENDCHAR
STARTCHAR SquareUnion3
ENCODING 191
SWIDTH 1944 0
DWIDTH 66 0
BBX 61 77 4 -27
BITMAP
e000000000000038
e000000000000038
e000000000000038
e000000000000038
e000000000000038
e000000000000038
e000000000000038
e000000000000038
e000000000000038
e000000000000038
e000000000000038
e000000000000038
e000000000000038
e000000000000038
e000000000000038
e000000000000038
e000000000000038
e000000000000038
e000000000000038
e000000000000038
e000000000000038
e000000000000038
e000000000000038
e000000000000038
e000000000000038
e000000000000038
e000000000000038
e000000000000038
e000000000000038
e000000000000038
e000000000000038
e000000000000038
e000000000000038
e000000000000038
e000000000000038
e000000000000038
e000000000000038
e000000000000038
e000000000000038
e000000000000038
e000000000000038
e000000000000038
e000000000000038
e000000000000038
e000000000000038
e000000000000038
e000000000000038
e000000000000038
e000000000000038
e000000000000038
e000000000000038
e000000000000038
e000000000000038
e000000000000038
e000000000000038
e000000000000038
e000000000000038
e000000000000038
e000000000000038
e000000000000038
e000000000000038
e000000000000038
e000000000000038
e000000000000038
e000000000000038
e000000000000038
e000000000000038
e000000000000038
e000000000000038
e000000000000038
e000000000000038
e000000000000038
e000000000000038
e000000000000038
fffffffffffffff8
fffffffffffffff8
fffffffffffffff8
ENDCHAR
STARTCHAR DblBar1
ENCODING 192
SWIDTH 436 0
DWIDTH 15 0
BBX 9 29 3 -6
BITMAP
c180
c180
c180
c180
c180
c180
c180
c180
c180
c180
c180
c180
c180
c180
c180
c180
c180
c180
c180
c180
c180
c180
c180
c180
c180
c180
c180
c180
c180
ENDCHAR
STARTCHAR DblBar2
ENCODING 193
SWIDTH 436 0
DWIDTH 15 0
BBX 9 43 3 -13
BITMAP
c180
c180
c180
c180
c180
c180
c180
c180
c180
c180
c180
c180
c180
c180
c180
c180
c180
c180
c180
c180
c180
c180
c180
c180
c180
c180
c180
c180
c180
c180
c180
c180
c180
c180
c180
c180
c180
c180
c180
c180
c180
c180
c180
ENDCHAR
STARTCHAR DblBar3
ENCODING 194
SWIDTH 436 0
DWIDTH 15 0
BBX 9 58 3 -20
BITMAP
c180
c180
c180
c180
c180
c180
c180
c180
c180
c180
c180
c180
c180
c180
c180
c180
c180
c180
c180
c180
c180
c180
c180
c180
c180
c180
c180
c180
c180
c180
c180
c180
c180
c180
c180
c180
c180
c180
c180
c180
c180
c180
c180
c180
c180
c180
c180
c180
c180
c180
c180
c180
c180
c180
c180
c180
c180
c180
ENDCHAR
STARTCHAR DblBar4
ENCODING 195
SWIDTH 436 0
DWIDTH 15 0
BBX 9 71 3 -27
BITMAP
c180
c180
c180
c180
c180
c180
c180
c180
c180
c180
c180
c180
c180
c180
c180
c180
c180
c180
c180
c180
c180
c180
c180
c180
c180
c180
c180
c180
c180
c180
c180
c180
c180
c180
c180
c180
c180
c180
c180
c180
c180
c180
c180
c180
c180
c180
c180
c180
c180
c180
c180
c180
c180
c180
c180
c180
c180
c180
c180
c180
c180
c180
c180
c180
c180
c180
c180
c180
c180
c180
c180
ENDCHAR
STARTCHAR BarExt
ENCODING 196
SWIDTH 232 0
DWIDTH 8 0
BBX 2 10 3 0
BITMAP
c0
c0
c0
c0
c0
c0
c0
c0
c0
c0
ENDCHAR
STARTCHAR DblBarExt
ENCODING 197
SWIDTH 436 0
DWIDTH 15 0
BBX 9 10 3 0
BITMAP
c180
c180
c180
c180
c180
c180
c180
c180
c180
c180
ENDCHAR
STARTCHAR OverCircle
ENCODING 198
SWIDTH 199 0
DWIDTH 7 0
BBX 7 7 0 0
BITMAP
38
44
82
82
82
44
38
ENDCHAR
STARTCHAR Hacek
ENCODING 199
SWIDTH 312 0
DWIDTH 11 0
BBX 11 6 0 1
BITMAP
c060
60c0
3180
1b00
1f00
0e00
ENDCHAR
STARTCHAR VertBar1
ENCODING 200
SWIDTH 232 0
DWIDTH 8 0
BBX 2 29 3 -6
BITMAP
c0
c0
c0
c0
c0
c0
c0
c0
c0
c0
c0
c0
c0
c0
c0
c0
c0
c0
c0
c0
c0
c0
c0
c0
c0
c0
c0
c0
c0
ENDCHAR
STARTCHAR VertBar2
ENCODING 201
SWIDTH 232 0
DWIDTH 8 0
BBX 2 43 3 -13
BITMAP
c0
c0
c0
c0
c0
c0
c0
c0
c0
c0
c0
c0
c0
c0
c0
c0
c0
c0
c0
c0
c0
c0
c0
c0
c0
c0
c0
c0
c0
c0
c0
c0
c0
c0
c0
c0
c0
c0
c0
c0
c0
c0
c0
ENDCHAR
STARTCHAR Nbspace
ENCODING 202
SWIDTH 189 0
DWIDTH 6 0
BBX 0 0 0 0
BITMAP
ENDCHAR
STARTCHAR VertBar3
ENCODING 203
SWIDTH 232 0
DWIDTH 8 0
BBX 2 58 3 -20
BITMAP
c0
c0
c0
c0
c0
c0
c0
c0
c0
c0
c0
c0
c0
c0
c0
c0
c0
c0
c0
c0
c0
c0
c0
c0
c0
c0
c0
c0
c0
c0
c0
c0
c0
c0
c0
c0
c0
c0
c0
c0
c0
c0
c0
c0
c0
c0
c0
c0
c0
c0
c0
c0
c0
c0
c0
c0
c0
c0
ENDCHAR
STARTCHAR VertBar4
ENCODING 204
SWIDTH 232 0
DWIDTH 8 0
BBX 2 71 3 -27
BITMAP
c0
c0
c0
c0
c0
c0
c0
c0
c0
c0
c0
c0
c0
c0
c0
c0
c0
c0
c0
c0
c0
c0
c0
c0
c0
c0
c0
c0
c0
c0
c0
c0
c0
c0
c0
c0
c0
c0
c0
c0
c0
c0
c0
c0
c0
c0
c0
c0
c0
c0
c0
c0
c0
c0
c0
c0
c0
c0
c0
c0
c0
c0
c0
c0
c0
c0
c0
c0
c0
c0
c0
ENDCHAR
STARTCHAR FIntegral
ENCODING 205
SWIDTH 390 0
DWIDTH 13 0
BBX 20 43 2 -8
BITMAP
0003c0
000670
000c70
000830
001800
001800
003800
003800
003000
003000
003000
003000
007000
007000
007000
007000
007040
0073c0
007f80
00fc00
07f000
3e7000
107000
00f000
00f000
00e000
00e000
00e000
00e000
00e000
00e000
00e000
00e000
00e000
00c000
00c000
00c000
00c000
018000
c18000
e10000
e20000
3c0000
ENDCHAR
STARTCHAR FIntegral2
ENCODING 206
SWIDTH 640 0
DWIDTH 22 0
BBX 35 75 2 -22
BITMAP
0000003f00
000000e3c0
00000381e0
00000701e0
00000f00e0
00000e0040
00001e0000
00001c0000
00003c0000
0000380000
0000380000
0000780000
0000780000
0000780000
0000700000
0000f00000
0000f00000
0000f00000
0000f00000
0000f00000
0000f00000
0000f00000
0000f00000
0000f00000
0001e00000
0001e00000
0001e00000
0001e00400
0001e07c00
0001e3fe00
0001ffe000
0001ff0000
000ff00000
007fe00000
03fde00000
03e1e00000
0301e00000
0001e00000
0001c00000
0001c00000
0001c00000
0001c00000
0001c00000
0001c00000
0001c00000
0001c00000
0001c00000
0001c00000
0001c00000
0001800000
0003800000
0003800000
0003800000
0003800000
0003800000
0003800000
0003800000
0003800000
0003000000
0003000000
0003000000
0003000000
0003000000
0003000000
0007000000
0006000000
0006000000
0006000000
0006000000
e00c000000
f80c000000
f818000000
f830000000
7c60000000
1f80000000
ENDCHAR
STARTCHAR FIntegral3
ENCODING 207
SWIDTH 927 0
DWIDTH 32 0
BBX 52 111 2 -39
BITMAP
0000000000fe00
00000000070780
000000001c03e0
000000003803e0
000000007803f0
00000000f003f0
00000001e001f0
00000001e000f0
00000003c00000
00000007c00000
00000007800000
0000000f800000
0000000f800000
0000000f800000
0000001f000000
0000001f000000
0000001f000000
0000003f000000
0000003e000000
0000003e000000
0000003e000000
0000003e000000
0000007e000000
0000007e000000
0000007e000000
0000007c000000
0000007c000000
0000007c000000
0000007c000000
0000007c000000
0000007c000000
000000fc000000
000000fc000000
000000fc000000
000000fc000000
000000fc000000
000000fc000000
000000fc000000
000000f8000000
000000f8000000
000000f8000000
000001f8001000
000001f801f000
000001f80ff800
000001f87f8000
000001fbfc0000
000001ffe00000
000001ff000000
00001ff8000000
0000fff8000000
0007fdf8000000
007fc1f0000000
00fe01f0000000
00f001f0000000
000001f0000000
000001f0000000
000001f0000000
000003f0000000
000003f0000000
000003f0000000
000003f0000000
000003e0000000
000003e0000000
000003e0000000
000003e0000000
000003e0000000
000003e0000000
000003e0000000
000003e0000000
000003e0000000
000003c0000000
000003c0000000
000003c0000000
000003c0000000
000007c0000000
000007c0000000
000007c0000000
00000780000000
00000780000000
00000780000000
00000780000000
00000780000000
00000780000000
00000780000000
00000780000000
00000780000000
00000780000000
00000780000000
00000780000000
00000780000000
00000780000000
00000700000000
00000700000000
00000f00000000
00000f00000000
00000f00000000
00000e00000000
00000e00000000
00000e00000000
00001e00000000
00001c00000000
00001c00000000
00001800000000
f0003800000000
f8003000000000
fc006000000000
fc00e000000000
7c00c000000000
7c038000000000
1f0e0000000000
07f80000000000
ENDCHAR
STARTCHAR OverDoubleDot
ENCODING 208
SWIDTH 299 0
DWIDTH 10 0
BBX 10 4 0 2
BITMAP
4080
e1c0
e1c0
4080
ENDCHAR
STARTCHAR OverTripleDot
ENCODING 209
SWIDTH 496 0
DWIDTH 17 0
BBX 17 4 0 2
BITMAP
408100
e1c380
e1c380
408100
ENDCHAR
STARTCHAR OverLVector
ENCODING 210
SWIDTH 400 0
DWIDTH 14 0
BBX 13 6 1 2
BITMAP
0800
1800
3000
3000
6000
fff8
ENDCHAR
STARTCHAR OverRVector
ENCODING 211
SWIDTH 400 0
DWIDTH 14 0
BBX 13 6 0 2
BITMAP
0080
00c0
0060
0060
0030
fff8
ENDCHAR
STARTCHAR OverLRVector
ENCODING 212
SWIDTH 556 0
DWIDTH 19 0
BBX 18 6 1 2
BITMAP
0c0c00
180600
180600
300300
600180
ffffc0
ENDCHAR
STARTCHAR OverLArrow
ENCODING 213
SWIDTH 380 0
DWIDTH 13 0
BBX 14 10 0 -2
BITMAP
0400
0800
1800
7000
fffc
7000
3000
1800
0c00
0400
ENDCHAR
STARTCHAR OverArrowVectExt
ENCODING 214
SWIDTH 200 0
DWIDTH 7 0
BBX 7 1 0 2
BITMAP
fe
ENDCHAR
STARTCHAR OverRArrow
ENCODING 215
SWIDTH 380 0
DWIDTH 13 0
BBX 14 10 0 -2
BITMAP
0080
0040
0060
0038
fffc
0038
0030
0060
00c0
0080
ENDCHAR
STARTCHAR OverLRArrow
ENCODING 216
SWIDTH 517 0
DWIDTH 18 0
BBX 18 10 0 -2
BITMAP
0c0c00
180600
300300
700380
ffffc0
700380
300300
180600
080c00
040400
ENDCHAR
STARTCHAR Integral
ENCODING 217
SWIDTH 390 0
DWIDTH 13 0
BBX 20 43 2 -8
BITMAP
0003c0
000c70
000870
001830
003800
003000
003000
007000
007000
007000
007000
00f000
00f000
00f000
00f000
00e000
00e000
00e000
00e000
00e000
00e000
00e000
00e000
00e000
00e000
00e000
00e000
00e000
00e000
00e000
00e000
00e000
00e000
00c000
00c000
00c000
00c000
008000
018000
c10000
e10000
e20000
3c0000
ENDCHAR
STARTCHAR Summation
ENCODING 218
SWIDTH 808 0
DWIDTH 27 0
BBX 23 30 2 -5
BITMAP
7ffff8
380038
1c0018
1e0008
0e0008
070008
078004
038000
01c000
01e000
00e000
007000
007800
003800
001c00
001800
003000
006000
00e000
00c000
018000
030002
060002
060004
0c0004
18000c
30001c
7ffffc
7ffffc
fffffc
ENDCHAR
STARTCHAR Product
ENCODING 219
SWIDTH 945 0
DWIDTH 32 0
BBX 26 30 3 -5
BITMAP
ffffffc0
1c000e00
1c000e00
1c000e00
1c000e00
1c000e00
1c000e00
1c000e00
1c000e00
1c000e00
1c000e00
1c000e00
1c000e00
1c000e00
1c000e00
1c000e00
1c000e00
1c000e00
1c000e00
1c000e00
1c000e00
1c000e00
1c000e00
1c000e00
1c000e00
1c000e00
1c000e00
1c000e00
3e001f00
ff807fc0
ENDCHAR
STARTCHAR Intersection
ENCODING 220
SWIDTH 853 0
DWIDTH 29 0
BBX 23 30 3 -5
BITMAP
c00006
c00006
c00006
c00006
c00006
c00006
c00006
c00006
c00006
c00006
c00006
c00006
c00006
c00006
c00006
c00006
c00006
c00006
c00006
c00006
c00006
e0000e
60000c
60000c
300018
180030
1c0070
0783c0
03ff80
00fe00
ENDCHAR
STARTCHAR Union
ENCODING 221
SWIDTH 853 0
DWIDTH 29 0
BBX 23 30 3 -5
BITMAP
00fe00
03ff80
0783c0
1c0070
180030
300018
60000c
60000c
e0000e
c00006
c00006
c00006
c00006
c00006
c00006
c00006
c00006
c00006
c00006
c00006
c00006
c00006
c00006
c00006
c00006
c00006
c00006
c00006
c00006
c00006
ENDCHAR
STARTCHAR LogicalOr
ENCODING 222
SWIDTH 611 0
DWIDTH 21 0
BBX 17 23 2 0
BITMAP
c00180
c00180
c00180
600300
600300
200200
300600
300600
100400
180c00
180c00
0c1800
0c1800
041000
063000
063000
022000
036000
036000
014000
01c000
008000
008000
ENDCHAR
STARTCHAR LogicalAnd
ENCODING 223
SWIDTH 611 0
DWIDTH 21 0
BBX 17 23 2 0
BITMAP
008000
008000
01c000
014000
036000
036000
022000
063000
063000
041000
0c1800
0c1800
180c00
180c00
100400
300600
300600
200200
600300
600300
c00180
c00180
c00180
ENDCHAR
STARTCHAR Integral1
ENCODING 224
SWIDTH 640 0
DWIDTH 22 0
BBX 35 75 2 -22
BITMAP
0000003f00
000000e3c0
00000381e0
00000781e0
00000700e0
00000e0040
00001e0000
00001e0000
00001c0000
00003c0000
00003c0000
0000380000
0000780000
0000780000
0000780000
0000780000
0000780000
0000780000
0000f00000
0000f00000
0000f00000
0000f00000
0000f00000
0000f00000
0000f00000
0000f00000
0000f00000
0000f00000
0000f00000
0000f00000
0000f00000
0000f00000
0000e00000
0001e00000
0001e00000
0001e00000
0001e00000
0001e00000
0001e00000
0001e00000
0001e00000
0001e00000
0001e00000
0001e00000
0001c00000
0001c00000
0001c00000
0003c00000
0003c00000
0003c00000
0003800000
0003800000
0003800000
0003800000
0003800000
0003800000
0003800000
0003800000
0003800000
0003800000
0003000000
0003000000
0003000000
0003000000
0007000000
0007000000
0007000000
0006000000
0006000000
f00e000000
f80c000000
f818000000
f830000000
7c60000000
1f80000000
ENDCHAR
STARTCHAR Integral2
ENCODING 225
SWIDTH 927 0
DWIDTH 32 0
BBX 52 112 2 -39
BITMAP
0000000000fe00
00000000070780
000000001c03e0
000000003803e0
000000007803f0
00000000f003f0
00000000e001f0
00000001e000f0
00000003c00020
00000003c00000
00000007800000
00000007800000
00000007800000
0000000f800000
0000000f000000
0000000f000000
0000001f000000
0000001f000000
0000001e000000
0000003e000000
0000003e000000
0000003e000000
0000003e000000
0000003e000000
0000003c000000
0000007c000000
0000007c000000
0000007c000000
0000007c000000
0000007c000000
0000007c000000
0000007c000000
0000007c000000
0000007c000000
0000007c000000
000000f8000000
000000f8000000
000000f8000000
000000f8000000
000000f8000000
000000f8000000
000000f8000000
000000f8000000
000000f8000000
000000f8000000
000000f8000000
000000f8000000
000000f8000000
000000f8000000
000000f8000000
000000f0000000
000000f0000000
000001f0000000
000001f0000000
000001f0000000
000001f0000000
000001f0000000
000001f0000000
000001f0000000
000001f0000000
000001f0000000
000001f0000000
000001f0000000
000001f0000000
000001f0000000
000001e0000000
000003e0000000
000003e0000000
000003e0000000
000003e0000000
000003e0000000
000003e0000000
000003e0000000
000003e0000000
000003e0000000
000003e0000000
000003e0000000
000007c0000000
000007c0000000
000007c0000000
000007c0000000
000007c0000000
000007c0000000
000007c0000000
000007c0000000
000007c0000000
000007c0000000
00000780000000
00000780000000
00000780000000
00000780000000
00000780000000
00000780000000
00000780000000
00000f80000000
00000f00000000
00000f00000000
00000f00000000
00000f00000000
00000e00000000
00001e00000000
00001e00000000
00001c00000000
00001c00000000
f0003800000000
f8003000000000
fc007000000000
fc00e000000000
7c00c000000000
7c038000000000
1f0e0000000000
07f80000000000
ENDCHAR
STARTCHAR Sum1
ENCODING 226
SWIDTH 1323 0
DWIDTH 45 0
BBX 41 52 2 -15
BITMAP
3ffffffffc00
1ffffffffc00
0f000000fc00
0f8000003c00
07c000001c00
03c000000c00
01e000000c00
01f000000400
00f800000400
007800000400
007c00000400
003e00000200
001e00000000
000f00000000
000f80000000
000780000000
0003c0000000
0003e0000000
0001f0000000
0000f0000000
000078000000
00007c000000
00003c000000
00001e000000
00001f000000
00000e000000
00000e000000
00001c000000
000038000000
000070000000
000060000000
0000e0000000
0001c0000000
000380000000
000700000000
000600000000
000e00000000
001c00000080
003800000100
007000000100
006000000100
00c000000100
01c000000300
038000000300
070000000700
060000000700
0c0000000f00
1c0000003f00
3fffffffff00
7fffffffff00
7fffffffff00
ffffffffff00
ENDCHAR
STARTCHAR Sum2
ENCODING 227
SWIDTH 1884 0
DWIDTH 64 0
BBX 60 77 2 -27
BITMAP
1fffffffffffff00
0fffffffffffff00
07e0000000007f00
03e0000000001f00
03f0000000000f00
01f8000000000f00
00f8000000000700
007c000000000700
007e000000000300
003f000000000300
001f000000000300
001f800000000300
000fc00000000100
0007c00000000100
0003e00000000100
0003f00000000000
0001f00000000000
0000f80000000000
0000fc0000000000
00007c0000000000
00003e0000000000
00003f0000000000
00001f8000000000
00000f8000000000
000007c000000000
000007e000000000
000003e000000000
000001f000000000
000001f800000000
000000f800000000
0000007c00000000
0000003e00000000
0000003e00000000
0000001f00000000
0000000f80000000
0000000fc0000000
00000007c0000000
00000003e0000000
00000003c0000000
0000000780000000
0000000700000000
0000000e00000000
0000001e00000000
0000003c00000000
0000007800000000
0000007000000000
000000f000000000
000001e000000000
000003c000000000
0000078000000000
0000070000000000
00000f0000000000
00001e0000000000
00003c0000000000
0000780000000000
0000700000000000
0000f00000000000
0001e00000000030
0003c00000000030
0007800000000020
0007000000000020
000f000000000060
001e000000000060
003c000000000060
0078000000000060
00700000000000e0
00f00000000000e0
01e00000000001e0
03c00000000001e0
07800000000003e0
07000000000007e0
0f00000000000fe0
1e00000000003fe0
3fffffffffffffe0
7fffffffffffffe0
7fffffffffffffe0
ffffffffffffffe0
ENDCHAR
STARTCHAR Product1
ENCODING 228
SWIDTH 1355 0
DWIDTH 46 0
BBX 40 52 3 -15
BITMAP
ffffffffff
3ffffffffc
1e00000078
1e00000078
1e00000078
1e00000078
1e00000078
1e00000078
1e00000078
1e00000078
1e00000078
1e00000078
1e00000078
1e00000078
1e00000078
1e00000078
1e00000078
1e00000078
1e00000078
1e00000078
1e00000078
1e00000078
1e00000078
1e00000078
1e00000078
1e00000078
1e00000078
1e00000078
1e00000078
1e00000078
1e00000078
1e00000078
1e00000078
1e00000078
1e00000078
1e00000078
1e00000078
1e00000078
1e00000078
1e00000078
1e00000078
1e00000078
1e00000078
1e00000078
1e00000078
1e00000078
1e00000078
1e00000078
1e00000078
1e00000078
3f000000fc
ffc00003ff
ENDCHAR
STARTCHAR Product2
ENCODING 229
SWIDTH 1877 0
DWIDTH 64 0
BBX 58 77 3 -27
BITMAP
ffffffffffffffc0
1ffffffffffffe00
07c000000000f800
0780000000007800
0780000000007800
0780000000007800
0780000000007800
0780000000007800
0780000000007800
0780000000007800
0780000000007800
0780000000007800
0780000000007800
0780000000007800
0780000000007800
0780000000007800
0780000000007800
0780000000007800
0780000000007800
0780000000007800
0780000000007800
0780000000007800
0780000000007800
0780000000007800
0780000000007800
0780000000007800
0780000000007800
0780000000007800
0780000000007800
0780000000007800
0780000000007800
0780000000007800
0780000000007800
0780000000007800
0780000000007800
0780000000007800
0780000000007800
0780000000007800
0780000000007800
0780000000007800
0780000000007800
0780000000007800
0780000000007800
0780000000007800
0780000000007800
0780000000007800
0780000000007800
0780000000007800
0780000000007800
0780000000007800
0780000000007800
0780000000007800
0780000000007800
0780000000007800
0780000000007800
0780000000007800
0780000000007800
0780000000007800
0780000000007800
0780000000007800
0780000000007800
0780000000007800
0780000000007800
0780000000007800
0780000000007800
0780000000007800
0780000000007800
0780000000007800
0780000000007800
0780000000007800
0780000000007800
0780000000007800
0780000000007800
0780000000007800
0fc000000000fc00
1fe000000001fe00
fffc0000000fffc0
ENDCHAR
STARTCHAR Union1
ENCODING 230
SWIDTH 1255 0
DWIDTH 43 0
BBX 37 52 3 -15
BITMAP
c000000018
c000000018
c000000018
c000000018
c000000018
c000000018
c000000018
c000000018
c000000018
c000000018
c000000018
c000000018
c000000018
c000000018
c000000018
c000000018
c000000018
c000000018
c000000018
c000000018
c000000018
c000000018
c000000018
c000000018
c000000018
c000000018
c000000018
c000000018
c000000018
c000000018
c000000018
c000000018
c000000018
c000000018
c000000018
c000000018
c000000018
e000000038
6000000030
6000000030
7000000070
3000000060
38000000e0
18000000c0
1c000001c0
0e00000380
0700000700
0380000e00
01e0003c00
007c01f000
001fffc000
0003fe0000
ENDCHAR
STARTCHAR Union2
ENCODING 231
SWIDTH 2024 0
DWIDTH 69 0
BBX 61 77 4 -27
BITMAP
e000000000000038
e000000000000038
e000000000000038
e000000000000038
e000000000000038
e000000000000038
e000000000000038
e000000000000038
e000000000000038
e000000000000038
e000000000000038
e000000000000038
e000000000000038
e000000000000038
e000000000000038
e000000000000038
e000000000000038
e000000000000038
e000000000000038
e000000000000038
e000000000000038
e000000000000038
e000000000000038
e000000000000038
e000000000000038
e000000000000038
e000000000000038
e000000000000038
e000000000000038
e000000000000038
e000000000000038
e000000000000038
e000000000000038
e000000000000038
e000000000000038
e000000000000038
e000000000000038
e000000000000038
e000000000000038
e000000000000038
e000000000000038
e000000000000038
e000000000000038
e000000000000038
e000000000000038
e000000000000038
e000000000000038
e000000000000038
e000000000000038
e000000000000038
e000000000000038
e000000000000038
7000000000000070
7000000000000070
7000000000000070
7000000000000070
38000000000000e0
38000000000000e0
38000000000000e0
1c000000000001c0
1e000000000003c0
0e00000000000380
0700000000000700
0780000000000f00
0380000000000e00
01c0000000001c00
00e0000000003800
0070000000007000
003c00000001e000
001e00000003c000
000f8000000f8000
0007e000003f0000
0001f80000fc0000
00007f800ff00000
00001fffffc00000
000007ffff000000
0000007ff0000000
ENDCHAR
STARTCHAR Intersect1
ENCODING 232
SWIDTH 1255 0
DWIDTH 43 0
BBX 38 52 3 -15
BITMAP
0003ff0000
001fffe000
007e01f800
01f0003e00
03c0000f00
0780000780
0f000003c0
1e000001e0
1c000000e0
3c000000f0
3800000070
7800000078
7000000038
7000000038
f00000003c
e00000001c
e00000001c
e00000001c
e00000001c
e00000001c
e00000001c
e00000001c
e00000001c
e00000001c
e00000001c
e00000001c
e00000001c
e00000001c
e00000001c
e00000001c
e00000001c
e00000001c
e00000001c
e00000001c
e00000001c
e00000001c
e00000001c
e00000001c
e00000001c
e00000001c
e00000001c
e00000001c
e00000001c
e00000001c
e00000001c
e00000001c
e00000001c
e00000001c
e00000001c
e00000001c
e00000001c
e00000001c
ENDCHAR
STARTCHAR Intersect2
ENCODING 233
SWIDTH 2024 0
DWIDTH 69 0
BBX 62 77 4 -27
BITMAP
0000007ff8000000
000007ffff800000
00001fffffe00000
00007fc00ff80000
0001fc0000fe0000
0007f000003f8000
000fc000000fc000
001f00000003e000
003e00000001f000
0078000000007800
00f0000000003c00
01e0000000001e00
03c0000000000f00
07c0000000000f80
0780000000000780
0f000000000003c0
1f000000000003e0
1e000000000001e0
3c000000000000f0
3c000000000000f0
3c000000000000f0
7800000000000078
7800000000000078
7800000000000078
7800000000000078
f00000000000003c
f00000000000003c
f00000000000003c
f00000000000003c
f00000000000003c
f00000000000003c
f00000000000003c
f00000000000003c
f00000000000003c
f00000000000003c
f00000000000003c
f00000000000003c
f00000000000003c
f00000000000003c
f00000000000003c
f00000000000003c
f00000000000003c
f00000000000003c
f00000000000003c
f00000000000003c
f00000000000003c
f00000000000003c
f00000000000003c
f00000000000003c
f00000000000003c
f00000000000003c
f00000000000003c
f00000000000003c
f00000000000003c
f00000000000003c
f00000000000003c
f00000000000003c
f00000000000003c
f00000000000003c
f00000000000003c
f00000000000003c
f00000000000003c
f00000000000003c
f00000000000003c
f00000000000003c
f00000000000003c
f00000000000003c
f00000000000003c
f00000000000003c
f00000000000003c
f00000000000003c
f00000000000003c
f00000000000003c
f00000000000003c
f00000000000003c
f00000000000003c
f00000000000003c
ENDCHAR
STARTCHAR Or1
ENCODING 234
SWIDTH 782 0
DWIDTH 27 0
BBX 23 30 2 -5
BITMAP
c00006
c00006
e0000e
60000c
60000c
300018
300018
380038
180030
180030
0c0060
0c0060
0c0060
0600c0
0600c0
0701c0
030180
030180
018300
018300
018300
00c600
00c600
006c00
006c00
006c00
003800
003800
003800
001000
ENDCHAR
STARTCHAR Or2
ENCODING 235
SWIDTH 1200 0
DWIDTH 41 0
BBX 39 53 1 -15
BITMAP
e00000000e
700000001c
700000001c
3000000018
3800000038
3800000038
1c00000070
1c00000070
1c00000070
0e000000e0
0e000000e0
0e000000e0
07000001c0
07000001c0
07000001c0
0380000380
0380000380
0380000380
01c0000700
01c0000700
00c0000600
00e0000e00
00e0000e00
0060000c00
0070001c00
0070001c00
0030001800
0038003800
0038003800
0018003000
001c007000
001c007000
000c006000
000e00e000
000e00e000
000600c000
000701c000
000701c000
0003018000
0003838000
0003838000
0001830000
0001c70000
0001c70000
0000c60000
0000ee0000
00006c0000
00006c0000
00007c0000
0000380000
0000380000
0000380000
0000100000
ENDCHAR
STARTCHAR And1
ENCODING 236
SWIDTH 782 0
DWIDTH 27 0
BBX 24 30 2 -5
BITMAP
001800
003c00
003c00
003c00
007e00
007e00
007e00
00e700
00e700
01c380
01c380
01c380
0381c0
0381c0
0781e0
0700e0
0700e0
0e0070
0e0070
0e0070
1c0038
1c0038
3c003c
38001c
38001c
70000e
70000e
f0000f
e00007
e00007
ENDCHAR
STARTCHAR And2
ENCODING 237
SWIDTH 1200 0
DWIDTH 41 0
BBX 39 53 1 -15
BITMAP
0000180000
00003c0000
00003c0000
00003c0000
00007e0000
00007e0000
00007e0000
0000ff0000
0000e70000
0001e78000
0001e78000
0001c38000
0003c3c000
0003c3c000
000381c000
000781e000
000781e000
000700e000
000f00f000
000f00f000
000e007000
001e007800
001e007800
001c003800
003c003c00
003c003c00
0038001c00
0078001e00
0078001e00
0070000e00
00f0000f00
00f0000f00
00e0000700
01e0000780
01e0000780
03c00003c0
03c00003c0
03c00003c0
07800001e0
07800001e0
07800001e0
0f000000f0
0f000000f0
0f000000f0
1e00000078
1e00000078
1e00000078
3c0000003c
3c0000003c
380000001c
780000001e
780000001e
f00000000e
ENDCHAR
STARTCHAR SmallVee
ENCODING 238
SWIDTH 660 0
DWIDTH 22 0
BBX 16 14 3 2
BITMAP
c003
c003
6006
300c
300c
1818
1818
0c30
0e70
0660
03c0
03c0
0180
0180
ENDCHAR
STARTCHAR SmallWedge
ENCODING 239
SWIDTH 660 0
DWIDTH 22 0
BBX 17 14 3 2
BITMAP
01c000
01c000
03e000
03e000
077000
0f7800
0e3800
1c1c00
1c1c00
380e00
380e00
700700
e00380
e00380
ENDCHAR
STARTCHAR DoubleGrave
ENCODING 240
SWIDTH 364 0
DWIDTH 12 0
BBX 12 6 0 2
BITMAP
e600
7700
3980
18c0
0460
0310
ENDCHAR
STARTCHAR Breve
ENCODING 241
SWIDTH 282 0
DWIDTH 10 0
BBX 10 5 0 1
BITMAP
c0c0
4080
6180
7f80
1e00
ENDCHAR
STARTCHAR DownBreve
ENCODING 242
SWIDTH 282 0
DWIDTH 10 0
BBX 10 5 0 1
BITMAP
1e00
7f80
6180
4080
c0c0
ENDCHAR
STARTCHAR OverTilde
ENCODING 243
SWIDTH 331 0
DWIDTH 11 0
BBX 12 4 0 2
BITMAP
0030
3e20
7fe0
c3c0
ENDCHAR
STARTCHAR Tilde2
ENCODING 244
SWIDTH 666 0
DWIDTH 23 0
BBX 21 3 1 2
BITMAP
1fe008
7ffff0
803fe0
ENDCHAR
STARTCHAR Tilde3
ENCODING 245
SWIDTH 1000 0
DWIDTH 34 0
BBX 33 4 1 2
BITMAP
07fe000080
3ffff00300
6007fffe00
80003ff000
ENDCHAR
STARTCHAR Tilde4
ENCODING 246
SWIDTH 1333 0
DWIDTH 45 0
BBX 44 4 1 2
BITMAP
01fff0000010
1fffffe000e0
70007fffff80
800000fff800
ENDCHAR
STARTCHAR BackQuote
ENCODING 247
SWIDTH 322 0
DWIDTH 11 0
BBX 6 9 3 16
BITMAP
1c
1c
3c
38
70
70
e0
c0
80
ENDCHAR
STARTCHAR DblBackQuote
ENCODING 248
SWIDTH 513 0
DWIDTH 17 0
BBX 14 9 2 16
BITMAP
0c18
1e3c
1e38
1c70
3870
30e0
60c0
6180
c100
ENDCHAR
STARTCHAR Quote
ENCODING 249
SWIDTH 322 0
DWIDTH 11 0
BBX 6 9 3 16
BITMAP
e0
e0
f0
70
38
38
1c
0c
04
ENDCHAR
STARTCHAR DblQuote
ENCODING 250
SWIDTH 513 0
DWIDTH 17 0
BBX 14 9 2 16
BITMAP
60c0
f1e0
71e0
38e0
3870
1c30
0c18
0618
020c
ENDCHAR
STARTCHAR VertBar
ENCODING 251
SWIDTH 232 0
DWIDTH 8 0
BBX 2 23 3 0
BITMAP
c0
c0
c0
c0
c0
c0
c0
c0
c0
c0
c0
c0
c0
c0
c0
c0
c0
c0
c0
c0
c0
c0
c0
ENDCHAR
STARTCHAR DblVertBar
ENCODING 252
SWIDTH 436 0
DWIDTH 15 0
BBX 9 23 3 0
BITMAP
c180
c180
c180
c180
c180
c180
c180
c180
c180
c180
c180
c180
c180
c180
c180
c180
c180
c180
c180
c180
c180
c180
c180
ENDCHAR
STARTCHAR VertBarExten
ENCODING 253
SWIDTH 232 0
DWIDTH 8 0
BBX 2 15 3 0
BITMAP
c0
c0
c0
c0
c0
c0
c0
c0
c0
c0
c0
c0
c0
c0
c0
ENDCHAR
STARTCHAR DblVertBarExten
ENCODING 254
SWIDTH 436 0
DWIDTH 15 0
BBX 9 15 3 0
BITMAP
c180
c180
c180
c180
c180
c180
c180
c180
c180
c180
c180
c180
c180
c180
c180
ENDCHAR
STARTCHAR Coproduct
ENCODING 255
SWIDTH 727 0
DWIDTH 25 0
BBX 23 23 1 0
BITMAP
ff83fe
3e00f8
1c0070
1c0070
1c0070
1c0070
1c0070
1c0070
1c0070
1c0070
1c0070
1c0070
1c0070
1c0070
1c0070
1c0070
1c0070
1c0070
1c0070
1c0070
1c0070
1c0070
fffffe
ENDCHAR
ENDFONT
